<?xml version="1.0" encoding="UTF-8"?>
<svg version="1.1" xmlns="http://www.w3.org/2000/svg" width="2176" height="1984">
<path d="M0 0 C718.08 0 1436.16 0 2176 0 C2176 654.72 2176 1309.44 2176 1984 C1457.92 1984 739.84 1984 0 1984 C0 1329.28 0 674.56 0 0 Z " fill="#FDFDFD" transform="translate(0,0)"/>
<path d="M0 0 C345.97040864 0 345.97040864 0 394 17 C394.92151855 17.32371582 395.84303711 17.64743164 396.79248047 17.98095703 C426.12403748 28.40089068 452.78051894 43.2157838 477.43359375 62.1796875 C479.9323965 64.13908308 479.9323965 64.13908308 483 65 C484.32421875 66.3828125 484.32421875 66.3828125 485.6875 68.125 C489.08629171 72.23361307 492.94657199 75.55458619 497 79 C509.52541187 89.74815749 520.06974645 101.86483777 530 115 C530.46293457 115.60602051 530.92586914 116.21204102 531.40283203 116.83642578 C537.84940637 125.29602368 543.65004017 133.96043413 548.95019531 143.18115234 C549.97046444 144.94882792 551.00984464 146.70379493 552.0546875 148.45703125 C556.92745977 156.75212024 561.06437682 165.26376135 565.0612793 174.00585938 C566.00778162 176.01653064 567.0151988 177.98666945 568.03515625 179.9609375 C570.12237205 184.1101246 571.69056369 188.35822965 573.1875 192.75 C573.47939209 193.59780029 573.77128418 194.44560059 574.07202148 195.3190918 C575.05921546 198.20907447 576.03190195 201.10356529 577 204 C577.36319336 205.08555176 577.72638672 206.17110352 578.10058594 207.28955078 C582.32866971 220.00454522 586.3468006 232.72571029 589.62353516 245.72070312 C591.9135098 254.79366029 594.41811233 263.80122146 596.9375 272.8125 C601.51620497 289.21466123 606.0606587 305.62680835 610.328125 322.11328125 C612.53825439 330.64719625 614.90558064 339.10067138 617.48632812 347.5300293 C620.01258709 355.87002465 622.28695449 364.27661698 624.5625 372.6875 C627.28314897 382.74206618 630.03405162 392.78017206 633.02734375 402.7578125 C633.73412618 405.11375392 634.3858698 407.48642453 635.00390625 409.8671875 C635.49697266 411.41792969 635.49697266 411.41792969 636 413 C636.66 413.33 637.32 413.66 638 414 C638.10006348 413.1632373 638.20012695 412.32647461 638.30322266 411.46435547 C639.08878923 407.5585427 640.49978546 404.16796036 642.1484375 400.5703125 C642.78755906 399.1436103 643.4265535 397.71685115 644.06542969 396.29003906 C644.38958862 395.57255493 644.71374756 394.8550708 645.04772949 394.11584473 C646.48657997 390.91887057 647.88734742 387.70557076 649.2890625 384.4921875 C649.83624356 383.24259597 650.38360899 381.99308516 650.93115234 380.74365234 C653.66108371 374.50988011 656.38643927 368.27410864 659.11010742 362.03759766 C659.68633043 360.71821296 660.26265827 359.39887404 660.83911133 358.07958984 C668.12585968 341.40098377 675.26068541 324.66591083 682.29571533 307.87985229 C686.32541176 298.26954324 690.41119229 288.70119556 694.76391602 279.23168945 C698.63854679 270.73491965 702.14422649 262.08121459 705.66503906 253.43334961 C706.37805176 251.6893689 706.37805176 251.6893689 707.10546875 249.91015625 C707.72651489 248.38080444 707.72651489 248.38080444 708.36010742 246.82055664 C710.78904134 241.1617228 713.41940039 235.59129915 716 230 C747.02 230 778.04 230 810 230 C814.64787117 239.29574233 818.85899648 247.83776265 822.5625 257.3984375 C824.36832283 261.92280884 826.40844655 266.31259575 828.5078125 270.70703125 C829.63539009 273.19537657 830.66652175 275.66231067 831.66015625 278.203125 C834.60881865 285.64912286 837.89970207 292.94819836 841.13552856 300.27252197 C847.66435392 315.05552824 854.12104503 329.86679055 860.46102905 344.73171997 C864.11629771 353.30070965 867.80023721 361.85600328 871.53515625 370.390625 C871.91819412 371.26637177 872.30123199 372.14211853 872.69587708 373.04440308 C874.55301925 377.28873188 876.41368997 381.53146543 878.27954102 385.77197266 C881.74984216 393.68188765 885.08868723 401.59175622 888.08544922 409.69580078 C888.79479301 411.92691701 888.79479301 411.92691701 890 413 C892.13968095 408.26479634 893.73237039 403.706709 895.015625 398.65234375 C895.37985447 397.23874126 895.74419807 395.82516816 896.10864258 394.41162109 C896.2948819 393.68094421 896.48112122 392.95026733 896.67300415 392.19744873 C899.67958472 380.42142304 902.88539004 368.77354542 906.68432617 357.22460938 C908.74749035 350.91817392 910.42582581 344.59945675 911.96875 338.1484375 C913.1995643 333.08258594 914.63020327 328.07444186 916.0625 323.0625 C916.30814697 322.19810303 916.55379395 321.33370605 916.80688477 320.44311523 C918.19149365 315.62738705 919.68748316 310.86650925 921.29223633 306.11987305 C922.36970518 302.89266987 923.35269175 299.638673 924.3125 296.375 C924.52414795 295.65610596 924.7357959 294.93721191 924.95385742 294.1965332 C926.68965548 288.22258433 928.26408771 282.21233534 929.8125 276.1875 C934.38516261 258.41956796 939.50755476 240.80262681 944.84716797 223.2512207 C947.00897425 216.09364982 948.94983257 208.88126523 950.88671875 201.66015625 C952.42078907 195.9865311 954.15066293 190.43220886 956.078125 184.87890625 C957.37633301 180.82475665 958.35680528 176.70316578 959.35766602 172.56860352 C960.79345098 166.69443356 962.40157599 160.87675993 964.0625 155.0625 C964.30790527 154.19890869 964.55331055 153.33531738 964.80615234 152.44555664 C965.97829582 148.36896255 967.20793383 144.32845943 968.57421875 140.3125 C969.84363897 136.55934213 970.84386346 132.79712876 971.75 128.9375 C975.47640589 113.56280528 980.17992275 98.43537868 985.01123047 83.37744141 C986.6061923 78.36639658 987.95927863 73.34484716 989.171875 68.2265625 C990.23409244 64.08792287 991.49479874 60.02102909 992.75 55.9375 C995.25422009 47.76388337 997.45360498 39.53387754 999.5625 31.25 C1005.99764151 6.00471698 1005.99764151 6.00471698 1009 0 C1050.91 0 1092.82 0 1136 0 C1134.87413254 10.13280718 1134.87413254 10.13280718 1133.6953125 14.59375 C1133.31439453 16.04587891 1133.31439453 16.04587891 1132.92578125 17.52734375 C1132.66152344 18.50832031 1132.39726563 19.48929688 1132.125 20.5 C1131.86847656 21.48097656 1131.61195312 22.46195313 1131.34765625 23.47265625 C1130.18353534 27.86589648 1128.96513022 32.21147495 1127.4921875 36.51171875 C1125.71553651 41.70688329 1124.36021267 46.99566485 1123 52.3125 C1122.73727295 53.32779785 1122.4745459 54.3430957 1122.20385742 55.38916016 C1120.66540718 61.34892236 1119.15399569 67.31438556 1117.73828125 73.3046875 C1117.10419603 75.61960178 1116.3793788 77.85218973 1115.6015625 80.12109375 C1113.81519067 85.40958651 1112.43522801 90.77942889 1111.0625 96.1875 C1109.46609345 102.39710587 1107.86719594 108.5969203 1106.0625 114.75 C1103.72198678 122.77041978 1101.68828094 130.87122735 1099.63696289 138.96972656 C1097.90185296 145.75571427 1095.95837336 152.4389268 1093.86572266 159.12280273 C1092.85333288 162.48744276 1092.099886 165.80059366 1091.4375 169.25 C1090.70697045 173.04330874 1089.81839663 176.64348787 1088.55859375 180.2890625 C1086.88672506 185.16427479 1085.74816684 190.09988906 1084.625 195.125 C1082.90905494 202.57483947 1080.85567996 209.68370783 1078.328125 216.8984375 C1075.61494213 224.95964193 1073.73187159 233.29908508 1071.64013672 241.53759766 C1071.10297808 243.60387609 1070.52324914 245.65902315 1069.93359375 247.7109375 C1068.90834059 251.32291726 1068.07314288 254.96350922 1067.25 258.625 C1065.5000547 266.24794484 1063.40359313 273.74480869 1061.21630859 281.25244141 C1059.65226893 286.64387136 1058.19739567 292.04445131 1056.875 297.5 C1055.45753344 303.31044142 1053.79460482 308.98683127 1051.9921875 314.6875 C1050.72045384 318.93328798 1049.67840164 323.22310841 1048.63183594 327.52905273 C1047.30668528 332.91577758 1045.80289961 338.23746607 1044.25 343.5625 C1041.73423468 352.23059394 1039.42564747 360.94394981 1037.1875 369.6875 C1036.50926028 372.33597485 1035.83097803 374.98443871 1035.15234375 377.6328125 C1034.89328751 378.64381012 1034.89328751 378.64381012 1034.6289978 379.67523193 C1032.72866913 387.07830265 1030.78618276 394.4701534 1028.83242798 401.85928345 C1028.45130334 403.30100696 1028.07072723 404.74287561 1027.69076538 406.18490601 C1025.53766047 414.35417749 1023.30361514 422.49466692 1020.96435547 430.61303711 C1019.07751851 437.23989512 1017.32730313 443.90386672 1015.55664062 450.5625 C1014.29308572 455.28881725 1013.01823293 459.99965093 1011.56640625 464.671875 C1009.22637281 472.3600034 1007.41727003 480.19836788 1005.5 488 C1000.98547877 506.37019997 1000.98547877 506.37019997 998.71972656 513.66455078 C997.26194873 518.39491127 995.95768578 523.17069965 994.625 527.9375 C994.31755859 529.03578125 994.01011719 530.1340625 993.69335938 531.265625 C991.7013324 538.41030629 989.77865488 545.56949823 987.91674805 552.74902344 C986.17685851 559.4198972 984.31147304 566.05321033 982.4375 572.6875 C980.16618991 580.7362705 978.01160038 588.78968126 976.02734375 596.9140625 C974.29991892 603.89040358 972.34477867 610.80843959 970.44140625 617.73828125 C969.25170847 622.07002123 968.08713192 626.40746323 966.9375 630.75 C964.68394925 639.18264152 962.3361482 647.58986649 960 656 C924.36 656 888.72 656 852 656 C848.7 648.41 845.4 640.82 842 633 C839.525 627.555 839.525 627.555 837 622 C835.65271586 618.85888869 834.31636295 615.71633458 833 612.5625 C832.65751221 611.74700684 832.31502441 610.93151367 831.9621582 610.09130859 C830.45342551 606.49522913 828.95304142 602.89620393 827.48046875 599.28515625 C827.05378906 598.24230469 826.62710938 597.19945312 826.1875 596.125 C825.83042969 595.24070312 825.47335937 594.35640625 825.10546875 593.4453125 C824.03441508 590.94387562 824.03441508 590.94387562 822.5 588.53515625 C820.91123884 585.8499844 819.87415588 583.24450992 818.8125 580.3125 C814.80344053 569.64985087 810.03218306 559.30545298 805.1875 549 C801.84962796 541.80799837 798.8061647 534.49515878 795.73120117 527.18774414 C789.88139989 513.30621901 783.89554353 499.48370787 777.89361572 485.66738892 C776.05867019 481.44309342 774.22980332 477.21628063 772.40875244 472.98597717 C771.15263431 470.07175937 769.88823171 467.16113978 768.625 464.25 C767.95597656 462.6885022 767.95597656 462.6885022 767.2734375 461.09545898 C766.66242188 459.69469116 766.66242188 459.69469116 766.0390625 458.265625 C765.69053223 457.45899414 765.34200195 456.65236328 764.98291016 455.82128906 C764.13152054 453.82629271 764.13152054 453.82629271 762 453 C761.649375 454.155 761.29875 455.31 760.9375 456.5 C759.28103467 461.45412903 757.21769744 466.19553344 755.10009766 470.96386719 C752.26343814 477.36180679 749.53058259 483.8008848 746.8125 490.25 C742.78965556 499.77893314 738.75213978 509.30133224 734.6875 518.8125 C734.20837158 519.9375293 733.72924316 521.06255859 733.2355957 522.22167969 C730.3766235 528.90201121 727.39975732 535.51608844 724.33666992 542.10522461 C722.76669913 545.50525086 721.27433163 548.92720662 719.8125 552.375 C719.34457031 553.47585938 718.87664063 554.57671875 718.39453125 555.7109375 C717.93433594 556.79632812 717.47414063 557.88171875 717 559 C716.50371094 560.14726563 716.00742188 561.29453125 715.49609375 562.4765625 C714.01612825 565.96201649 712.62688171 569.47270752 711.25 573 C708.91193531 578.91841121 706.34042132 584.68760964 703.61083984 590.43457031 C701.1171325 595.69738062 698.81190167 601.02139366 696.5546875 606.390625 C694.44319249 611.2926888 692.20866292 616.14094157 690 621 C685.05 632.55 680.1 644.1 675 656 C639.36 656 603.72 656 567 656 C565.515 650.06 565.515 650.06 564 644 C563.3202643 641.37297875 562.6340439 638.7476147 561.9375 636.125 C561.61652344 634.91070313 561.29554688 633.69640625 560.96484375 632.4453125 C560.07114338 629.25404235 559.05006394 626.14261013 558 623 C552.93260174 606.41578751 548.48998532 589.68142804 544.20458984 572.88183594 C539.72214809 555.33207295 534.92749054 537.88883308 529.98095703 520.46582031 C528.74129722 516.08597693 527.52310677 511.70044513 526.3125 507.3125 C524.79956517 501.83267612 523.24685886 496.36536584 521.67431641 490.90234375 C519.58670971 483.64864377 517.54789448 476.40430775 515.7734375 469.06640625 C514.57882881 464.33020512 513.23484551 459.63656226 511.91040039 454.93530273 C510.12080881 448.54005544 508.52294345 442.11012413 506.9921875 435.6484375 C506.27834279 433.02351245 505.51860723 430.66763988 504.53125 428.15625 C502.76118125 423.57795226 501.69759488 418.90685543 500.625 414.125 C498.36355543 404.33090494 495.77476058 394.65962742 493 385 C488.81192906 370.3766523 484.67416553 355.73933802 480.84008789 341.01879883 C479.06791063 334.22269673 477.22554884 327.4468699 475.36645508 320.67407227 C474.0031604 315.70116957 472.65840235 310.72428457 471.34375 305.73828125 C465.75225302 284.58317035 459.75956281 263.47718395 452 243 C451.60844727 241.95972656 451.60844727 241.95972656 451.20898438 240.8984375 C440.53278766 212.87023609 423.10058687 187.16378541 399 169 C398.14148438 168.33742188 397.28296875 167.67484375 396.3984375 166.9921875 C384.77746974 158.25075157 372.49776978 151.3002058 359.04003906 145.8293457 C357.58426193 145.23752247 356.13358776 144.63308228 354.68652344 144.02026367 C348.52373506 141.4568992 342.34489033 139.56153878 335.875 137.9375 C334.97652344 137.69451172 334.07804687 137.45152344 333.15234375 137.20117188 C272.1123268 121.75681859 169.30978919 131.2326023 130 131 C130 260.69 130 390.38 130 524 C269.44959388 535.04528115 269.44959388 535.04528115 402 484 C402.96550781 483.15566406 403.93101562 482.31132813 404.92578125 481.44140625 C426.66794645 462.11503718 442.20165543 437.95138291 452.125 410.6875 C452.55876953 409.50341553 452.99253906 408.31933105 453.43945312 407.09936523 C459.06429425 391.5403633 462.85260544 376.29001284 463.65625 359.71484375 C464 357 464 357 466 354 C468.43396591 360.06368832 470.07624129 366.06732797 471.5 372.4375 C472.82348113 378.33339495 474.29246114 384.04842765 476.26806641 389.76000977 C477.55469467 393.69757292 478.47519352 397.72335248 479.4375 401.75 C481.06084054 408.38729471 482.81958739 414.92862328 484.89453125 421.44140625 C486.38235391 426.23082833 487.7532509 431.05124408 489.125 435.875 C489.37886475 436.76759521 489.63272949 437.66019043 489.89428711 438.57983398 C490.37787696 440.28223012 490.85760152 441.98573012 491.33300781 443.69042969 C491.91576581 445.70832525 492.57294682 447.70442669 493.2421875 449.6953125 C494.67492677 455.94323737 493.1592391 460.34499848 489.90820312 465.60546875 C489.50537109 466.23066406 489.10253906 466.85585937 488.6875 467.5 C487.89903915 468.75997862 487.1112751 470.02039356 486.32421875 471.28125 C485.93403564 471.89822754 485.54385254 472.51520508 485.1418457 473.15087891 C484.03160659 474.94881584 482.98997509 476.77182545 481.9609375 478.6171875 C471.79672172 496.1514721 455.75271034 514.30877047 440 527 C438.56527344 528.19109375 438.56527344 528.19109375 437.1015625 529.40625 C416.95893504 545.88905423 394.4595653 558.67268376 369.69140625 566.78125 C367.12075712 567.62997225 364.63622292 568.51990178 362.12109375 569.50390625 C357.66398761 571.19020411 353.13486474 572.34861542 348.5 573.4375 C347.60434326 573.64922852 346.70868652 573.86095703 345.78588867 574.07910156 C328.51553654 578.04478703 310.86089953 581.180266 293.10372925 581.12025452 C292.16005151 581.12110894 291.21637377 581.12196337 290.24409974 581.12284368 C287.11046719 581.12447897 283.97688926 581.11900932 280.84326172 581.11352539 C278.58565777 581.11324307 276.32805373 581.11340213 274.07044983 581.1139679 C267.9617246 581.11425412 261.85301911 581.1083856 255.74429846 581.10139394 C249.35281824 581.09513134 242.96133755 581.0945543 236.56985474 581.09336853 C225.84864904 581.09061625 215.12745194 581.08437531 204.40625 581.07543945 C193.36751338 581.06624855 182.32877873 581.05918741 171.29003906 581.05493164 C170.60171084 581.05466364 169.91338263 581.05439565 169.20419598 581.05411953 C163.2159367 581.05180642 157.22767737 581.04965374 151.23941803 581.04751682 C125.49293856 581.03812147 99.74647823 581.01819682 74 581 C74 538.43 74 495.86 74 452 C77.3 450.35 80.6 448.7 84 447 C91.6332353 439.7361148 95.14388395 432.59158071 95.5 422 C95.24731414 413.70648897 93.08624989 405.92175665 87 400 C77.72246876 392.96062805 69.78023203 389.73885594 58 391 C50.45940256 392.96102224 42.91428782 397.95469095 38.359375 404.27734375 C33.63870698 412.42999169 32.75147587 421.22834372 34.4609375 430.5 C37.20452017 439.79590364 42.47216796 445.22467521 50.828125 449.87109375 C52.2133915 450.59113335 53.60359882 451.30179941 55 452 C55.00238835 452.71691356 55.00477671 453.43382711 55.00723743 454.17246532 C55.06637098 471.61579002 55.14191044 489.05896634 55.23571491 506.50213909 C55.28068235 514.93752989 55.32009481 523.37287838 55.34643555 531.80834961 C55.36940798 539.16062763 55.40279748 546.51277187 55.44870156 553.8649438 C55.47264407 557.75795625 55.49136606 561.65083612 55.49761391 565.54392052 C55.50366019 569.20885513 55.5236431 572.87345047 55.55427551 576.53825951 C55.56725062 578.52323842 55.56548455 580.50829656 55.5632782 582.49331665 C55.57581635 583.67817154 55.58835449 584.86302643 55.60127258 586.08378601 C55.60588155 587.11158519 55.61049051 588.13938437 55.61523914 589.19832897 C56.06655675 592.48463903 57.04018194 594.34156871 59 597 C62.05275244 599.03516829 62.64142977 599.25054844 66.07033443 599.25726891 C66.90202174 599.2637178 67.73370905 599.27016669 68.590599 599.276811 C69.50437061 599.2737138 70.41814222 599.2706166 71.35960388 599.26742554 C72.33063098 599.27195665 73.30165809 599.27648776 74.30211025 599.28115618 C77.57181589 599.29386453 80.84135631 599.29217554 84.11108398 599.29052734 C86.45030432 599.29650947 88.78952267 599.30331428 91.1287384 599.31088257 C97.50214885 599.3286039 103.87550562 599.33324114 110.24893832 599.33451414 C114.90994234 599.33617389 119.57093443 599.34197442 124.23193424 599.3481871 C136.79421388 599.36481965 149.35646516 599.3722704 161.9187554 599.37084763 C162.63255587 599.37076772 163.34635633 599.3706878 164.08178711 599.37060547 C164.79647469 599.37052371 165.51116227 599.37044195 166.24750704 599.37035771 C177.76474045 599.36954923 189.28184167 599.38856896 200.79903697 599.4168822 C212.6598866 599.44580604 224.52067231 599.45941116 236.381558 599.45769465 C243.02569939 599.4570363 249.66972234 599.46267954 256.31384087 599.48405075 C294.35806302 599.82585464 294.35806302 599.82585464 332 595 C333.9342126 594.64116718 335.86902141 594.2855325 337.8044281 593.93319702 C342.5620955 593.06309232 347.28042845 592.05501471 352 591 C353.17949219 590.75121094 354.35898437 590.50242187 355.57421875 590.24609375 C381.47600816 584.13244448 407.0709159 571.9999183 429 557 C430.62808594 555.92298828 430.62808594 555.92298828 432.2890625 554.82421875 C439.80204892 549.77671117 446.71720281 544.2693489 453.51269531 538.30371094 C454.87231372 537.11192461 456.24415119 535.93411525 457.6171875 534.7578125 C474.6526504 519.89940557 487.62149757 501.77179489 500 483 C502.62809217 485.27292016 503.51196616 486.98275216 504.28125 490.3515625 C504.48363281 491.20363281 504.68601562 492.05570313 504.89453125 492.93359375 C505.09433594 493.82175781 505.29414062 494.70992187 505.5 495.625 C506.85109733 501.47394392 508.33584419 507.15402655 510.29492188 512.82958984 C511.43310845 516.33321818 512.20982413 519.90490664 513 523.5 C514.02641764 528.03572283 515.05750343 532.48917626 516.625 536.875 C517.08491896 538.24947044 517.54320671 539.62448761 518 541 C518.31195312 541.8559375 518.62390625 542.711875 518.9453125 543.59375 C520.21907823 547.9962801 520.72758168 550.67290587 518.46875 554.79296875 C516.12710136 557.71590693 513.65183671 560.3558165 511 563 C510.15824219 563.88042969 509.31648438 564.76085938 508.44921875 565.66796875 C504.18040578 570.05628192 499.7500344 574.21160437 495.08984375 578.1796875 C493.5928366 579.4836227 492.13005359 580.82725869 490.69140625 582.1953125 C468.3095787 603.38480525 440.06256799 619.59251445 412 632 C410.27523437 632.76570313 410.27523437 632.76570313 408.515625 633.546875 C288.35445373 684.11243576 93.75371501 656 0 656 C0 439.52 0 223.04 0 0 Z " fill="#020303" transform="translate(520,665)"/>
<path d="M0 0 C7.87930965 4.51051715 11.60035945 10.87349519 15.375 18.9375 C17.41128216 28.91528259 15.65156352 37.4043634 10.75 46.2578125 C6.10309266 53.20177063 -1.19509981 57.33264927 -9 60 C-11.32597511 60.3813074 -13.65912158 60.72460254 -16 61 C-17.35843714 65.47788002 -18.71221021 69.95715713 -20.0625 74.4375 C-20.36770569 75.44999313 -20.36770569 75.44999313 -20.67907715 76.48294067 C-23.47542171 85.77315619 -26.17268578 95.08366438 -28.75 104.4375 C-30.91373284 112.28303045 -33.2548293 120.01003625 -35.89453125 127.70703125 C-37.80913034 133.4102363 -39.39588686 139.20351889 -41 145 C-42.14323034 149.12572714 -43.28896944 153.25074506 -44.4375 157.375 C-44.89443237 159.01601685 -44.89443237 159.01601685 -45.3605957 160.69018555 C-47.35614223 167.81469762 -49.50088429 174.8669053 -51.75390625 181.9140625 C-53.31644339 186.92274319 -54.64450959 191.99474116 -56 197.0625 C-57.99811448 204.52136695 -60.21096475 211.81482562 -62.72265625 219.1171875 C-64.58162587 224.64040248 -66.11332193 230.26090843 -67.69262695 235.86889648 C-69.68443911 242.93391496 -71.76806923 249.96747775 -73.90795898 256.98901367 C-75.15616605 261.10499503 -76.34323143 265.22932966 -77.4609375 269.3828125 C-79.24557639 275.98741794 -81.27404588 282.5112598 -83.30664062 289.04296875 C-84.96659083 294.43318568 -86.50602948 299.83832373 -87.94140625 305.29296875 C-89.95655361 312.93642998 -92.20015121 320.49968665 -94.5 328.0625 C-97.08945471 336.60416546 -99.62492567 345.15552179 -102.06201172 353.74194336 C-103.41235855 358.43230737 -104.86359316 363.08937816 -106.3125 367.75 C-109.31268621 377.48339099 -112.0229016 387.27909599 -114.6027832 397.13183594 C-116.01084181 402.47868145 -117.52667639 407.73550049 -119.32080078 412.96533203 C-120.36976553 416.10770162 -121.20726128 419.30017149 -122.0625 422.5 C-124.57755384 431.73928704 -127.34666624 440.89985368 -130.125 450.0625 C-130.4516716 451.14217041 -130.4516716 451.14217041 -130.78494263 452.24365234 C-132.17480838 456.83387632 -133.58217451 461.4183349 -135 466 C-135.28875 466.95302002 -135.5775 467.90604004 -135.875 468.88793945 C-137.64951591 474.54706734 -138.92762958 476.97608686 -144 480 C-148.02722337 480.63587737 -150.03586495 480.62003808 -153.4831543 478.40307617 C-156.43194701 475.58757839 -158.02446871 472.63304883 -159.70703125 468.98828125 C-160.19638153 467.96778938 -160.19638153 467.96778938 -160.69561768 466.92668152 C-161.74665129 464.72746609 -162.77974818 462.52035133 -163.8125 460.3125 C-164.53792169 458.78465278 -165.26440701 457.25731013 -165.99194336 455.73046875 C-167.36418397 452.84555799 -168.72960579 449.95763876 -170.08691406 447.06567383 C-171.75339786 443.51603044 -173.44104097 439.97684343 -175.13632202 436.44087219 C-177.95611712 430.53178991 -180.65321334 424.56681324 -183.3515625 418.6015625 C-184.63000028 415.77594746 -185.90862663 412.95041792 -187.1875 410.125 C-187.51193085 409.40800934 -187.83636169 408.69101868 -188.17062378 407.95230103 C-193.04715782 397.18508181 -198.07408032 386.50591799 -203.23413086 375.87109375 C-210.7237618 360.41923514 -217.87947454 344.81165478 -225.03515625 329.203125 C-226.46081351 326.09369313 -227.88659048 322.9843162 -229.3125 319.875 C-229.6721283 319.09066589 -230.03175659 318.30633179 -230.40228271 317.49822998 C-235.8166065 305.69480464 -241.3028964 293.92749766 -246.85012817 282.18600464 C-252.12635075 271.01705015 -257.3354875 259.81832398 -262.51693726 248.60510254 C-268.32073295 236.04919635 -274.12657173 223.49411195 -280.0625 211 C-280.54493164 209.97382568 -281.02736328 208.94765137 -281.52441406 207.89038086 C-281.96108398 206.97780518 -282.39775391 206.06522949 -282.84765625 205.125 C-283.21898682 204.34382812 -283.59031738 203.56265625 -283.97290039 202.7578125 C-284.8845228 200.82997096 -284.8845228 200.82997096 -287 200 C-287.16725586 200.53802246 -287.33451172 201.07604492 -287.50683594 201.63037109 C-289.38574749 207.48778328 -291.68265596 213.03921795 -294.25 218.625 C-294.65057617 219.50470459 -295.05115234 220.38440918 -295.46386719 221.29077148 C-296.6374285 223.86291255 -297.81767506 226.43187783 -299 229 C-299.29390625 229.64179199 -299.5878125 230.28358398 -299.890625 230.94482422 C-303.35100285 238.49531781 -306.95041381 245.97587561 -310.56542969 253.453125 C-311.12133789 254.60296875 -311.67724609 255.7528125 -312.25 256.9375 C-312.80848633 258.0925 -313.36697266 259.2475 -313.94238281 260.4375 C-318.17880137 269.22703315 -322.28961197 278.06821716 -326.30957031 286.95874023 C-328.273467 291.29102285 -330.27289822 295.59008231 -332.41796875 299.8359375 C-335.53503614 306.00743905 -338.41606771 312.28518941 -341.3125 318.5625 C-342.46669149 321.05764205 -343.62200807 323.55226258 -344.77734375 326.046875 C-345.33147949 327.24376953 -345.88561523 328.44066406 -346.45654297 329.67382812 C-348.95604812 335.06029731 -351.48632015 340.43195236 -354.0234375 345.80078125 C-355.78734319 349.53899791 -357.53432735 353.28507673 -359.28125 357.03125 C-361.68405539 362.18384005 -364.09211307 367.33391088 -366.5078125 372.48046875 C-366.79953339 373.10202347 -367.09125427 373.72357819 -367.39181519 374.3639679 C-367.99256811 375.64393386 -368.59332705 376.923897 -369.1940918 378.20385742 C-374.84952544 390.25484047 -380.47806554 402.31773868 -386.07348633 414.39672852 C-388.98706287 420.6811494 -391.9153295 426.95820822 -394.86328125 433.2265625 C-395.18977158 433.92120102 -395.5162619 434.61583954 -395.85264587 435.33152771 C-397.48128285 438.79614576 -399.11201869 442.25975213 -400.74584961 445.72192383 C-403.41796408 451.39631875 -406.06719744 457.07185231 -408.515625 462.84765625 C-409.04965942 464.10231689 -409.04965942 464.10231689 -409.59448242 465.38232422 C-410.20876038 466.84512686 -410.8095688 468.31371794 -411.3918457 469.78955078 C-413.43631884 474.67256417 -415.71892889 477.06157844 -420 480 C-423.16249837 481.02366584 -424.55869407 480.60086294 -428 480 C-434.57649572 474.00808168 -436.47487156 465.72291767 -438.625 457.375 C-441.00651616 448.38429712 -443.65111396 439.49819728 -446.4375 430.625 C-449.58815027 420.5914008 -452.62508027 410.53588279 -455.53564453 400.43017578 C-457.58981275 393.32683072 -459.76419044 386.26885514 -462.04760742 379.23583984 C-463.36215901 375.15882477 -464.51560974 371.08311093 -465.52416992 366.91992188 C-466.26698131 363.92275987 -467.13757169 360.96459731 -468 358 C-469.43525026 353.01946737 -470.79046421 348.03973244 -472 343 C-472.76183594 342.92523437 -473.52367187 342.85046875 -474.30859375 342.7734375 C-485.61466706 341.33371281 -491.78745108 336.80537873 -499.2734375 328.44140625 C-504.89988883 320.48545132 -504.81973192 312.32099661 -504 303 C-501.66623773 292.82110466 -495.58746553 286.67825925 -487.05078125 281.1640625 C-480.7318892 277.57733901 -472.07709316 278.22277604 -465 279 C-461.1857124 280.1159076 -458.22967466 281.70875911 -455 284 C-454.35804687 284.4228125 -453.71609375 284.845625 -453.0546875 285.28125 C-446.96695905 289.81410409 -442.32183797 297.50474296 -441 305 C-440.28626472 312.97979445 -440.77757159 320.04337614 -445 327 C-446.43036012 328.48577998 -447.88993846 329.94389398 -449.375 331.375 C-451.88781384 334.01834962 -452.95126393 335.20181146 -453.17578125 338.87890625 C-452.67054297 342.04371886 -451.94377986 344.9354484 -451 348 C-450.53232485 349.57415126 -450.06489967 351.14837679 -449.59765625 352.72265625 C-448.55481158 356.18469373 -447.49453631 359.64084302 -446.421875 363.09375 C-442.81417222 374.73708399 -439.46300767 386.42008217 -436.39746094 398.21875 C-435.22604 402.68104 -434.0477161 407.06985715 -432.390625 411.37890625 C-431.15757327 414.58968982 -430.26376037 417.65400217 -429.5 421 C-428.5046242 425.13703069 -427.33571384 429.02908274 -425.76171875 432.9765625 C-424.28119841 436.90943193 -423.16590528 440.9648101 -422 445 C-419.08928545 441.51114505 -417.30225373 437.62608432 -415.453125 433.515625 C-415.11883484 432.78237 -414.78454468 432.04911499 -414.44012451 431.29364014 C-413.37219585 428.94779928 -412.3111439 426.59891643 -411.25 424.25 C-410.55250302 422.71725686 -409.85458995 421.184703 -409.15625 419.65234375 C-405.85398519 412.39170166 -402.60016829 405.11263289 -399.421875 397.796875 C-394.12891115 385.6309343 -388.39135214 373.68499583 -382.57546997 361.76223755 C-377.60214676 351.56025822 -372.66626445 341.35383193 -368.14111328 330.94262695 C-365.97716503 326.00673116 -363.60853704 321.19589662 -361.1796875 316.38671875 C-357.58227177 309.25298669 -354.22137755 302.03590452 -350.95651245 294.74499512 C-344.4233176 280.16612452 -337.66125822 265.70060359 -330.81079102 251.26855469 C-330.47138992 250.55344223 -330.13198883 249.83832977 -329.78230286 249.10154724 C-329.12047336 247.70725466 -328.45836101 246.3130963 -327.79594421 244.91908264 C-325.22826987 239.50655138 -322.72133637 234.06815888 -320.2409668 228.61499023 C-319.20657253 226.4352938 -318.1125357 224.38002116 -316.875 222.3125 C-315.40744543 219.71982026 -314.34023816 217.4306768 -313.2890625 214.67578125 C-310.88414326 208.58024875 -308.13920126 202.65644809 -305.36376953 196.72216797 C-304.49866045 194.87213538 -303.63768551 193.02022244 -302.77734375 191.16796875 C-293.50873046 171.27593327 -293.50873046 171.27593327 -290 169 C-286.83498689 168.3217829 -284.10362289 168.02651963 -281 169 C-275.34319895 174.22166251 -272.74286622 181.47312298 -269.625 188.375 C-269.01412124 189.70863781 -268.40220142 191.0417992 -267.78930664 192.37451172 C-266.50513776 195.16808768 -265.22486634 197.96340338 -263.94677734 200.75976562 C-261.13413108 206.90060733 -258.25540792 213.01035401 -255.37973022 219.12185669 C-251.42681927 227.52558535 -247.48643418 235.93508557 -243.5859375 244.36328125 C-242.76863159 246.12925659 -242.76863159 246.12925659 -241.93481445 247.9309082 C-240.86024036 250.25357302 -239.78585633 252.57632578 -238.71166992 254.89916992 C-235.13328127 262.61619164 -231.46111536 270.28358315 -227.75 277.9375 C-223.63489271 286.42962756 -219.80179535 294.99748553 -216.14257812 303.69458008 C-213.43189656 310.09813636 -210.43723294 316.29535148 -207.28125 322.48828125 C-199.07409434 338.62381689 -191.46282417 355.03332557 -184.18652344 371.60620117 C-180.90763971 379.04636439 -177.45248751 386.3484781 -173.71875 393.5703125 C-172.47981848 396.04254403 -171.32547254 398.49042404 -170.21875 401.01953125 C-167.60874934 406.96118015 -164.76593771 412.7904461 -161.93652344 418.62963867 C-161.00043316 420.56160601 -160.06644805 422.49457976 -159.1328125 424.42773438 C-158.52610973 425.68232458 -157.91934016 426.93688249 -157.3125 428.19140625 C-156.74015625 429.37492676 -156.1678125 430.55844727 -155.578125 431.77783203 C-154.27280298 434.44299911 -152.92957183 437.08118469 -151.5625 439.71484375 C-150 443 -150 443 -150 446 C-149.34 446 -148.68 446 -148 446 C-147.87882812 445.45472656 -147.75765625 444.90945313 -147.6328125 444.34765625 C-147.27886013 442.7548706 -146.92326457 441.1624496 -146.56640625 439.5703125 C-146.20775237 437.94276594 -145.86000367 436.3127453 -145.52734375 434.6796875 C-144.60676258 430.23923717 -143.37082607 426.15572363 -141.71484375 421.9375 C-140.80547725 419.47276894 -140.18587446 416.95587173 -139.578125 414.40234375 C-137.17001615 404.39567523 -134.31035266 394.50586058 -131.4375 384.625 C-131.14464111 383.61501953 -130.85178223 382.60503906 -130.55004883 381.56445312 C-129.02120197 376.3364775 -127.41901757 371.14749699 -125.67211914 365.98828125 C-124.74094511 363.23365672 -123.86421507 360.46379092 -123 357.6875 C-122.690625 356.70136719 -122.38125 355.71523437 -122.0625 354.69921875 C-121.16649216 351.57966206 -120.36104294 348.4633164 -119.5859375 345.3125 C-118.09000652 339.2626135 -116.39241392 333.28792505 -114.625 327.3125 C-114.31973389 326.27303223 -114.01446777 325.23356445 -113.69995117 324.16259766 C-112.80232423 321.10769831 -111.90159689 318.0537297 -111 315 C-110.30933331 312.65626223 -109.6190461 310.31241319 -108.92895508 307.96850586 C-108.52159653 306.58510011 -108.11388804 305.20179736 -107.70581055 303.81860352 C-106.42467254 299.4693233 -105.1742259 295.11209524 -103.9375 290.75 C-102.38554494 285.2901099 -100.7358579 279.86651446 -99.05053711 274.4465332 C-98.05529246 271.18139986 -97.11279963 267.90664572 -96.1875 264.62109375 C-94.69534841 259.37852967 -93.15428822 254.15452818 -91.5625 248.94140625 C-91.35334961 248.25609833 -91.14419922 247.57079041 -90.92871094 246.86471558 C-90.0725942 244.06309806 -89.21492033 241.26196649 -88.35449219 238.46166992 C-85.70639042 229.83524735 -83.21135464 221.19714765 -80.92041016 212.46801758 C-79.59495266 207.47382031 -78.1496209 202.51808862 -76.6875 197.5625 C-76.0820154 195.49740048 -75.47654716 193.43229617 -74.87109375 191.3671875 C-74.41065674 189.80049316 -74.41065674 189.80049316 -73.94091797 188.20214844 C-72.37272909 182.86526072 -70.81070572 177.52658 -69.25 172.1875 C-68.96858154 171.22851807 -68.68716309 170.26953613 -68.3972168 169.28149414 C-67.03815701 164.63395527 -65.72442629 159.98157225 -64.484375 155.30078125 C-63.64165963 152.17570024 -62.73174238 149.15822682 -61.54296875 146.1484375 C-59.31989728 140.45587422 -57.8911432 134.52076505 -56.3125 128.625 C-53.6455872 118.79818874 -50.84665461 109.03395744 -47.8125 99.3125 C-43.0366647 83.99208977 -38.80174814 68.58929128 -35 53 C-35.59554688 52.75765625 -36.19109375 52.5153125 -36.8046875 52.265625 C-39.42167607 50.75689849 -40.48615944 49.27261321 -42.125 46.75 C-42.62257813 46.00234375 -43.12015625 45.2546875 -43.6328125 44.484375 C-48.08520017 36.39375055 -48.45670229 26.16699711 -46.34765625 17.23828125 C-43.10887462 9.27338051 -36.57776445 2.08155163 -29 -2 C-19.21705597 -5.84281619 -9.1551131 -5.02510496 0 0 Z " fill="#F8F8F6" transform="translate(1569,784)"/>
<path d="M0 0 C0.98316861 -0.00724325 1.96633723 -0.01448649 2.97929883 -0.02194923 C6.27255459 -0.03885045 9.56406158 -0.01288187 12.85723877 0.01295471 C15.21985344 0.00973533 17.5824658 0.00391792 19.94506836 -0.00430298 C26.36797488 -0.01885918 32.79025696 0.00414436 39.21308804 0.03455615 C45.27010714 0.06091738 51.32713832 0.05604169 57.38420144 0.05473018 C69.41047861 0.053228 81.43651675 0.08069944 93.46270752 0.12428284 C105.07863735 0.1663567 116.6943566 0.18780311 128.31036377 0.18580627 C129.37918892 0.18562647 129.37918892 0.18562647 130.46960649 0.18544304 C131.18102695 0.18532197 131.8924474 0.18520091 132.62542605 0.18507618 C145.90098177 0.18299082 159.17644938 0.20079109 172.45197628 0.22753583 C177.11360373 0.23649369 181.77521445 0.23973108 186.4368515 0.24113274 C192.75708146 0.24418694 199.07709641 0.26282667 205.39725494 0.29263115 C207.69550759 0.30126545 209.99378503 0.30511155 212.29205322 0.30334854 C228.44777999 0.29565762 244.18252755 1.57543957 260.19024658 3.74171448 C261.0559205 3.85693195 261.92159442 3.97214943 262.81350088 4.09085834 C302.86848885 9.47697975 342.94987599 27.1669028 374.19024658 52.74171448 C375.71971924 53.96567932 375.71971924 53.96567932 377.28009033 55.21437073 C390.48740728 65.94595673 402.940317 78.13841287 413.19024658 91.74171448 C414.16091064 93.0043512 414.16091064 93.0043512 415.15118408 94.29249573 C421.01402694 102.11348176 426.15587803 110.37307565 431.19024658 118.74171448 C431.56794189 119.36642639 431.94563721 119.99113831 432.33477783 120.63478088 C449.39848526 149.11700278 466.85055726 187.36860766 469.36212158 221.04640198 C470.13825837 223.11947764 470.13825837 223.11947764 473.25274658 223.94483948 C474.56301684 224.30207893 475.8757021 224.65053861 477.19024658 224.99171448 C486.71943142 227.82023288 493.31109693 232.99019285 498.26055908 241.74562073 C501.97487327 249.72047178 502.33640551 257.90648509 499.62774658 266.24171448 C495.46412701 276.57847834 489.41590885 282.35705072 479.19024658 286.74171448 C471.89332957 289.14925125 462.76950627 288.95967937 455.81524658 285.74171448 C447.47922961 280.87446773 441.54161858 274.14535873 438.61212158 264.92140198 C436.86929641 255.91680528 437.46945355 246.68746786 442.19024658 238.74171448 C447.6540888 231.25376707 447.6540888 231.25376707 452.19024658 229.74171448 C441.43902405 187.21319634 429.0832043 146.82658109 403.19024658 110.74171448 C402.58438721 109.86644104 401.97852783 108.9911676 401.35430908 108.08937073 C396.19250335 100.74696543 390.38492231 94.20409981 384.19024658 87.74171448 C383.47844238 86.98906311 383.47844238 86.98906311 382.7522583 86.22120667 C355.38194835 57.3761833 320.04257075 39.52589633 282.19024658 28.74171448 C281.05695073 28.41417301 279.92365488 28.08663155 278.75601673 27.74916458 C269.93403045 25.28540781 261.21392356 23.56314975 252.097229 22.52980042 C251.37124586 22.44602001 250.64526273 22.3622396 249.8972801 22.27592039 C227.48733513 19.77570186 204.91661883 20.13046936 182.39969659 20.13420963 C176.07504897 20.13103104 169.7504887 20.1053128 163.42588806 20.08222961 C152.8541006 20.04657294 142.28234806 20.02425566 131.71051025 20.01271057 C120.84263666 20.0008042 109.97483069 19.98041577 99.10699463 19.94923401 C98.42536635 19.9472885 97.74373806 19.94534298 97.04145437 19.94333851 C91.1082163 19.9263323 85.17498011 19.90870266 79.24174404 19.89101219 C53.89125002 19.81622853 28.54087217 19.7822463 3.19024658 19.74171448 C3.19024658 72.87171448 3.19024658 126.00171448 3.19024658 180.74171448 C6.16024658 181.73171448 6.16024658 181.73171448 9.19024658 182.74171448 C16.53337097 186.98020907 22.66463631 193.55366291 25.19024658 201.74171448 C26.10064865 213.62423492 25.91877789 222.51390455 18.12774658 231.92921448 C12.86748612 237.52523625 5.70282008 242.35312323 -2.19256592 242.90968323 C-13.85543399 242.99275209 -20.9321696 241.23809272 -29.50115967 233.14405823 C-35.72260735 226.54838812 -38.03077297 219.34609813 -38.43475342 210.36671448 C-38.17400592 201.76204706 -35.6470357 194.93804072 -29.80584717 188.55030823 C-21.21476386 180.74171448 -21.21476386 180.74171448 -15.80975342 180.74171448 C-15.81528418 179.85049582 -15.82081493 178.95927715 -15.82651329 178.04105186 C-15.95900516 156.35819751 -16.05830077 134.67541291 -16.12062645 112.992239 C-16.15156768 102.50640198 -16.19375343 92.02083512 -16.26239014 81.53517151 C-16.32218382 72.39610573 -16.36090062 63.2572356 -16.37428439 54.11797965 C-16.38210821 49.27846854 -16.40050142 44.43951715 -16.44413376 39.60018539 C-16.48487435 35.04465247 -16.49741962 30.48990953 -16.48839951 25.93421173 C-16.49004951 24.26285381 -16.50197637 22.59146935 -16.52498627 20.92026901 C-16.55489933 18.63553052 -16.54764738 16.35376349 -16.53128052 14.06895447 C-16.53681128 12.79134939 -16.54234203 11.51374432 -16.54804039 10.19742393 C-15.70832553 6.26695966 -14.6984822 4.49495667 -11.72153008 1.86935878 C-8.01540025 -0.31666863 -4.19993125 -0.07089183 0 0 Z " fill="#F8F8F6" transform="translate(590.8097534179688,720.2582855224609)"/>
<path d="M0 0 C4.1362488 1.63197929 6.9067757 4.63240806 9.97436523 7.73144531 C10.56188568 8.31706741 11.14940613 8.90268951 11.75473022 9.50605774 C13.69427049 11.4418959 15.62651862 13.38483836 17.55859375 15.328125 C18.9081687 16.67889264 20.25811416 18.02929019 21.6084137 19.3793335 C24.43842232 22.21090625 27.26504048 25.04580618 30.08911133 27.88330078 C33.69973583 31.51087419 37.31686665 35.13187147 40.93635464 38.75059891 C43.72569213 41.54020915 46.51240911 44.33242482 49.29826546 47.12551117 C50.63045954 48.46087651 51.9632505 49.79564666 53.29665947 51.12979889 C55.16570933 53.00103105 57.03142139 54.87552902 58.89624023 56.75097656 C59.44237473 57.29665787 59.98850922 57.84233917 60.55119324 58.40455627 C63.90898778 61.79019328 66.97195179 65.31686699 70 69 C71.17554692 70.09866516 72.38175666 71.1660688 73.625 72.1875 C77.19874914 75.2605127 80.66606487 78.42077851 84.0625 81.6875 C84.56410645 82.15115967 85.06571289 82.61481934 85.58251953 83.0925293 C86.97265625 84.44921875 86.97265625 84.44921875 89 87 C88.82368898 91.13752095 86.09247128 93.26915609 83.28417969 96.05639648 C82.5498597 96.7913736 82.5498597 96.7913736 81.80070496 97.54119873 C80.18143816 99.15837687 78.55180038 100.76466463 76.921875 102.37109375 C75.79119513 103.49617374 74.66117925 104.62192138 73.53179932 105.74830627 C70.55481259 108.71384034 67.5689377 111.67026616 64.58111572 114.62487793 C61.55524056 117.62019277 58.53770935 120.6238861 55.51953125 123.62695312 C50.19657658 128.9212027 44.86631876 134.20800079 39.53070068 139.48948669 C37.01375877 141.98635098 34.50587075 144.49203015 32 147 C30.95984215 148.03593509 29.91922251 149.07140693 28.87792969 150.10620117 C25.82122337 153.14519378 22.76750074 156.18716475 19.71484375 159.23022461 C18.39866754 160.54133105 17.0816013 161.85154458 15.76367188 163.16088867 C13.85573296 165.05674903 11.95099731 166.95577617 10.046875 168.85546875 C9.45525574 169.44192673 8.86363647 170.0283847 8.25408936 170.63261414 C5.2591503 173.53635677 5.2591503 173.53635677 3 177 C-2.91348106 176.28617007 -6.75707203 170.76170909 -10.75610352 166.74487305 C-12.31085051 165.18915052 -13.88571953 163.65599133 -15.46289062 162.12304688 C-16.45181854 161.13932369 -17.43949363 160.1543391 -18.42578125 159.16796875 C-19.32723877 158.27360107 -20.22869629 157.3792334 -21.1574707 156.45776367 C-23 154 -23 154 -22.96748352 152.21405029 C-21.50025413 148.85635004 -18.96029996 146.62102239 -16.36279297 144.11743164 C-15.77582642 143.53966476 -15.18885986 142.96189789 -14.58410645 142.36662292 C-13.30991265 141.11387733 -12.03238732 139.86451336 -10.75194931 138.61815071 C-8.72771926 136.64606068 -6.71428095 134.66353808 -4.7036438 132.67759705 C1.01399885 127.03335731 6.74815228 121.40611379 12.49560547 115.79223633 C16.01069826 112.35737037 19.51114058 108.90813261 23.00289536 105.44955254 C24.33778486 104.13331954 25.67834352 102.82281103 27.02453995 101.51814461 C28.90400032 99.69616784 30.76439586 97.8565992 32.62158203 96.01196289 C33.18465057 95.47517914 33.74771912 94.93839539 34.32785034 94.38534546 C36.05177184 92.71697293 36.05177184 92.71697293 38 90 C37.92288998 86.78312754 37.41121076 85.52298626 35.43359375 83.0078125 C34.77488281 82.38648438 34.11617187 81.76515625 33.4375 81.125 C32.79683594 80.50882813 32.15617187 79.89265625 31.49609375 79.2578125 C30.13455204 78.02624582 28.76725574 76.80050835 27.37332153 75.60572815 C18.32614026 67.83793956 9.99415512 59.29530886 1.54272461 50.89282227 C-0.53670303 48.82684893 -2.62321299 46.7684368 -4.71606445 44.71606445 C-7.25857306 42.22269282 -9.78875469 39.71743488 -12.31037712 37.20294762 C-13.73549417 35.78781434 -15.17268667 34.38487548 -16.61000061 32.98213196 C-17.46516769 32.12411484 -18.32033478 31.26609772 -19.20141602 30.38208008 C-19.96116226 29.63042068 -20.72090851 28.87876129 -21.50367737 28.10432434 C-23 26 -23 26 -22.87072754 23.88072205 C-21.51023255 20.94213011 -19.38988378 19.05748577 -17.08984375 16.796875 C-16.60294571 16.3142218 -16.11604767 15.8315686 -15.61439514 15.33428955 C-14.0623455 13.7989915 -12.50017864 12.27447075 -10.9375 10.75 C-9.88147643 9.7090278 -8.82612962 8.6673686 -7.77148438 7.625 C-5.18878585 5.07532367 -2.59691118 2.53520804 0 0 Z " fill="#050606" transform="translate(1348,679)"/>
<path d="M0 0 C2.57456179 2.31050417 4.76632354 4.69622061 6.875 7.4375 C9.14497828 10.17482674 11.59800163 12.30792502 14.31640625 14.58203125 C16.33989141 16.28626585 18.23708879 18.02553944 20 20 C20 20.66 20 21.32 20 22 C21.485 22.495 21.485 22.495 23 23 C23 26 23 26 21.69274902 27.38490295 C20.7494574 28.13809059 20.7494574 28.13809059 19.78710938 28.90649414 C16.06585908 32.02831728 12.56755977 35.31864341 9.13476562 38.75170898 C8.33676167 39.54890146 8.33676167 39.54890146 7.52263641 40.36219883 C5.81520746 42.07154691 4.1106962 43.7837719 2.40625 45.49609375 C1.20721046 46.69700203 0.00794723 47.897687 -1.19152832 49.09815979 C-4.32380208 52.23422285 -7.4530591 55.37327889 -10.58166504 58.51300049 C-13.7843727 61.72600001 -16.98996908 64.93611471 -20.1953125 68.14648438 C-26.46634789 74.42819371 -32.73419523 80.71307358 -39 87 C-37.37399452 91.13199371 -34.37572143 93.87057609 -31.26513672 96.91430664 C-30.67963043 97.4952861 -30.09412415 98.07626556 -29.49087524 98.67485046 C-28.22168936 99.93309402 -26.95023616 101.18905375 -25.67678452 102.44297981 C-23.66364884 104.42595462 -21.65726233 106.41553255 -19.65261841 108.40708923 C-13.95280179 114.06714072 -8.24032828 119.71435836 -2.52490234 125.35864258 C0.9719666 128.81289902 4.46157825 132.27435383 7.94695663 135.74020195 C9.27819006 137.06084232 10.61233168 138.37855766 11.94937515 139.69331551 C13.81432612 141.52721873 15.67002482 143.3700248 17.52392578 145.21508789 C18.081828 145.75906219 18.63973022 146.3030365 19.21453857 146.86349487 C23 150.65825989 23 150.65825989 23 154 C20.74076588 156.56046534 18.28334168 158.75019275 15.72265625 161.0078125 C10.05123283 166.0238326 4.89226101 171.21947931 0 177 C-3.84109323 176.45407024 -5.21401641 174.96504498 -7.65380859 172.02880859 C-11.91710564 167.12793017 -16.39652489 162.5196298 -21.01416016 157.95166016 C-21.76306204 157.21023458 -22.51196392 156.46880901 -23.2835598 155.704916 C-24.87391245 154.1324885 -26.46509232 152.56089728 -28.05702591 150.99007034 C-31.45110163 147.63842507 -34.83555553 144.27713201 -38.22067833 140.91644859 C-44.5055034 134.67723823 -50.79431688 128.44217101 -57.09912109 122.22314453 C-61.50331192 117.87814277 -65.8953655 113.52119902 -70.27949142 109.15595627 C-71.95043785 107.49677992 -73.62591767 105.84215649 -75.30592728 104.19215775 C-77.64209827 101.89673458 -79.96251326 99.58645057 -82.27978516 97.27197266 C-82.97989716 96.59140808 -83.68000916 95.91084351 -84.40133667 95.20965576 C-85.02643127 94.579133 -85.65152588 93.94861023 -86.29556274 93.29898071 C-86.8452453 92.75520594 -87.39492786 92.21143116 -87.96126747 91.65117836 C-89 90 -89 90 -88.81834984 87.9634304 C-87.47629025 84.74348647 -84.92925411 82.5865773 -82.4609375 80.203125 C-81.90185699 79.65066101 -81.34277649 79.09819702 -80.76675415 78.5289917 C-78.97646569 76.7620823 -77.17637166 75.00560265 -75.375 73.25 C-73.59673081 71.50707348 -71.82070993 69.76194464 -70.04751587 68.01385498 C-68.94550552 66.92848727 -67.84041121 65.8462374 -66.73153687 64.7678833 C-63.97473965 62.0631437 -61.36342304 59.29814421 -58.85107422 56.36425781 C-53.85893274 50.59422379 -48.4298448 45.24504048 -43.046875 39.84375 C-42.20158108 38.99421501 -42.20158108 38.99421501 -41.33921051 38.1275177 C-38.36879384 35.1422258 -35.39560554 32.1597291 -32.41992188 29.1796875 C-29.34753155 26.1017665 -26.28456224 23.01464074 -23.22358322 19.92537689 C-20.86261834 17.54584258 -18.49502496 15.17299015 -16.12552643 12.80195618 C-14.99230256 11.66570262 -13.86158393 10.52694483 -12.73342133 9.38566589 C-11.16354242 7.79881355 -9.58456563 6.22160624 -8.00292969 4.64648438 C-6.65893097 3.29701721 -6.65893097 3.29701721 -5.28778076 1.92028809 C-3 0 -3 0 0 0 Z " fill="#030404" transform="translate(1200,679)"/>
<path d="M0 0 C4.21522509 0.13757187 6.63107539 3.23221607 9.39453125 6.06640625 C9.90497482 6.57872299 10.4154184 7.09103973 10.94132996 7.61888123 C12.02145841 8.7057272 13.09798535 9.79616262 14.17114258 10.88989258 C15.78950355 12.53906572 17.41796165 14.17765533 19.04882812 15.81445312 C23.9542662 20.75708892 28.74024683 25.75787065 33.27172852 31.04907227 C36.85802587 35.0973986 40.73058905 38.8736499 44.5625 42.6875 C45.38685547 43.51572266 46.21121094 44.34394531 47.06054688 45.19726562 C51.9305728 50.08403301 51.9305728 50.08403301 57.15234375 54.58203125 C60.08461032 57.07184333 62.41314844 59.72400145 64.90283203 62.640625 C69.34935457 67.64309226 74.1869153 72.28825241 78.9375 77 C80.01390654 78.07137887 81.09008014 79.14299182 82.16601562 80.21484375 C84.77466745 82.81259638 87.38644471 85.40717962 90 88 C88.54844106 91.33578513 86.72074062 93.52498603 84.1484375 96.08203125 C83.37886719 96.84966797 82.60929688 97.61730469 81.81640625 98.40820312 C81.01074219 99.20162109 80.20507812 99.99503906 79.375 100.8125 C78.59253906 101.59431641 77.81007813 102.37613281 77.00390625 103.18164062 C73.4871891 106.67211362 69.95976254 110.07572635 66.1640625 113.26171875 C62.85883129 116.11335374 59.94540728 119.1822977 57.015625 122.41796875 C51.05836201 128.99408167 44.82165721 135.28037072 38.546875 141.55078125 C38.03212112 142.06524685 37.51736725 142.57971245 36.98701477 143.10976791 C33.79047378 146.30280477 30.59006421 149.49194323 27.38861084 152.68005371 C24.6308925 155.42739735 21.87613276 158.17770437 19.12109375 160.92773438 C13.75022353 166.28799679 8.37617682 171.64505938 3 177 C-0.78602713 175.23239428 -3.23201966 173.02616429 -6.203125 170.0625 C-6.9271048 169.34139038 -6.9271048 169.34139038 -7.66571045 168.60571289 C-8.67999064 167.59278907 -9.69176804 166.57735362 -10.70117188 165.55957031 C-12.25171972 163.99826835 -13.81270503 162.44797503 -15.375 160.8984375 C-16.36001734 159.91209939 -17.34441453 158.9251415 -18.328125 157.9375 C-19.2243457 157.03902344 -20.12056641 156.14054687 -21.04394531 155.21484375 C-23 153 -23 153 -23 151 C-21.69398499 149.70780945 -21.69398499 149.70780945 -19.78930664 148.1472168 C-13.68774014 142.95320805 -8.05748292 137.28261919 -2.37109375 131.64453125 C-1.78142382 131.06018499 -1.19175388 130.47583874 -0.58421516 129.87378502 C2.52360408 126.79248589 5.62788338 123.70766573 8.72973633 120.62036133 C11.2941614 118.06937415 13.86570353 115.52589363 16.44360352 112.98852539 C19.56964437 109.91160528 22.6834155 106.82277328 25.78855705 103.72476768 C26.97133094 102.54872166 28.15836741 101.37694673 29.34967232 100.20954323 C31.00614179 98.58448874 32.64635367 96.94458835 34.28344727 95.30004883 C35.22084244 94.37074051 36.15823761 93.44143219 37.1240387 92.48396301 C39.15890727 90.25558706 39.15890727 90.25558706 39.14710999 88.03739929 C37.38685233 84.9109792 34.919226 82.57274886 32.36279297 80.1015625 C31.77582642 79.52218933 31.18885986 78.94281616 30.58410645 78.34588623 C29.30995184 77.08983318 28.03242493 75.83719396 26.75194931 74.58758545 C24.72806961 72.61121351 22.71454431 70.62482496 20.7036438 68.63525391 C14.98508918 62.98095982 9.24844359 57.34518101 3.50439453 51.71679688 C-0.00849428 48.27324767 -3.50924326 44.81773395 -7.00289536 41.35467529 C-8.33866084 40.03572706 -9.67922077 38.72161667 -11.02453995 37.41241455 C-12.90158695 35.58555491 -14.7629716 33.74402329 -16.62158203 31.8984375 C-17.18465057 31.35805847 -17.74771912 30.81767944 -18.32785034 30.26092529 C-19.84915161 28.73193359 -19.84915161 28.73193359 -22 26 C-21.98602067 22.61031781 -20.86751167 21.85371951 -18.5234375 19.265625 C-17.48060003 18.25352801 -16.43074461 17.24862587 -15.375 16.25 C-14.2793298 15.18687124 -13.18557499 14.12176489 -12.09375 13.0546875 C-11.56265625 12.53616211 -11.0315625 12.01763672 -10.484375 11.48339844 C-7.94989947 8.95059033 -5.62084775 6.25443242 -3.3046875 3.5234375 C-2.25728019 2.30041699 -1.13860468 1.13860468 0 0 Z " fill="#040404" transform="translate(859,905)"/>
<path d="M0 0 C5.40589123 2.5399677 9.13083287 6.72140161 13.32885742 10.90332031 C14.81315947 12.37565416 16.31510259 13.8283063 17.81835938 15.28125 C18.75099609 16.20679688 19.68363281 17.13234375 20.64453125 18.0859375 C21.50409424 18.9320459 22.36365723 19.7781543 23.24926758 20.64990234 C25 23 25 23 25.05444336 25.0065918 C23.59525055 27.76517233 21.71205724 29.62244096 19.484375 31.80859375 C18.10185547 33.17661133 18.10185547 33.17661133 16.69140625 34.57226562 C15.71112758 35.52753885 14.73065724 36.48261541 13.75 37.4375 C12.78446682 38.38797203 11.8196156 39.33913735 10.85546875 40.29101562 C9.06686759 42.05349674 7.27520108 43.81287639 5.47949219 45.56811523 C1.5613056 49.41107079 -2.30540217 53.30473412 -6.17292786 57.19857788 C-8.31967149 59.35890064 -10.46925345 61.51639088 -12.61889648 63.67382812 C-13.74350194 64.8034592 -14.86720782 65.9339866 -15.98999023 67.06542969 C-17.63281741 68.72054734 -19.27848557 70.3727678 -20.92578125 72.0234375 C-21.45358185 72.55354431 -21.98138245 73.08365112 -22.525177 73.62982178 C-26.0392798 77.12923852 -29.67426854 80.38287968 -33.59838867 83.42431641 C-35.55835409 85.62769853 -35.84238867 87.05821425 -36 90 C-34.31096774 92.57056226 -34.31096774 92.57056226 -31.7265625 94.97045898 C-31.26002762 95.43947632 -30.79349274 95.90849365 -30.31282043 96.39172363 C-28.76417225 97.94129117 -27.19520087 99.46839444 -25.625 100.99609375 C-24.54051232 102.07192165 -23.45727746 103.1490138 -22.37524414 104.22731018 C-19.5174291 107.06787455 -16.64163309 109.88956058 -13.762146 112.70812988 C-11.43035528 114.99654934 -9.11141943 117.2977463 -6.79315186 119.59985256 C-4.01210794 122.36115743 -1.22574989 125.117067 1.5625 127.87109375 C2.35065094 128.64960599 2.35065094 128.64960599 3.15472412 129.44384575 C8.61537921 134.82754334 14.1290187 140.06299462 20 145 C21.96037978 146.93306924 23.41029995 148.71480618 25 151 C24.71921881 156.64739649 18.95257531 160.60519628 15.22705078 164.32885742 C13.75283951 165.80964782 12.30428256 167.31276308 10.85546875 168.81835938 C9.92863281 169.75099609 9.00179687 170.68363281 8.046875 171.64453125 C7.19963867 172.50409424 6.35240234 173.36365723 5.47949219 174.24926758 C3 176 3 176 0.29760742 175.85864258 C-2.28902285 174.8919888 -3.55913125 173.88399871 -5.4375 171.875 C-6.035625 171.24335937 -6.63375 170.61171875 -7.25 169.9609375 C-8.84984603 168.16825289 -10.40026612 166.34635157 -11.9375 164.5 C-14.01810046 162.02217411 -16.18759902 159.89791389 -18.65625 157.80859375 C-23.15643664 153.91629004 -27.36809513 149.77967992 -31.5625 145.5625 C-32.27857422 144.85029297 -32.99464844 144.13808594 -33.73242188 143.40429688 C-37.80240074 139.32691132 -41.67860791 135.16229453 -45.37475586 130.74194336 C-46.98867682 128.90188043 -46.98867682 128.90188043 -49.20141602 127.39672852 C-49.79494873 126.93580811 -50.38848145 126.4748877 -51 126 C-51 125.34 -51 124.68 -51 124 C-51.66 124 -52.32 124 -53 124 C-54.35302734 122.62573242 -54.35302734 122.62573242 -55.9609375 120.66796875 C-60.56191955 115.2580621 -65.58309804 110.30850229 -70.625 105.3125 C-71.553125 104.38888672 -72.48125 103.46527344 -73.4375 102.51367188 C-75.16240902 100.79741212 -76.88835167 99.08219003 -78.61572266 97.3684082 C-79.40253418 96.5868335 -80.1893457 95.80525879 -81 95 C-81.92474121 94.15848389 -82.84948242 93.31696777 -83.80224609 92.44995117 C-86 90 -86 90 -86 86 C-84.65690613 84.16471481 -84.65690613 84.16471481 -82.73510742 82.25408936 C-81.64968155 81.1604155 -81.64968155 81.1604155 -80.54232788 80.04464722 C-79.73816437 79.25486481 -78.93400085 78.4650824 -78.10546875 77.65136719 C-77.26666168 76.81197601 -76.42785461 75.97258484 -75.56362915 75.10775757 C-73.26091557 72.80735518 -70.94956145 70.5160781 -68.63409805 68.2285223 C-66.21662597 65.83603506 -63.81045742 63.43223501 -61.40307617 61.02960205 C-56.84238416 56.4813484 -52.27159058 51.94338808 -47.69709682 47.40902066 C-42.48981111 42.24642589 -37.29386279 37.07248464 -32.09884453 31.89755011 C-21.41181342 21.25234278 -10.71059957 10.62149769 0 0 Z " fill="#040405" transform="translate(756,905)"/>
<path d="M0 0 C4.53489223 2.40310529 8.09111356 5.1393233 10 10 C10.45604898 14.71250609 10.49819138 17.00361725 8.375 21.25 C5.1772477 24.95266056 2.57835584 27.50563756 -2.36328125 28.453125 C-7.15735433 28.77321486 -10.23619577 28.34590578 -14 25.25 C-17.5735571 21.84824853 -18.89790303 19.05500199 -19.375 14.125 C-19.24562158 9.77465059 -17.87112239 7.3244575 -15 4 C-10.34993548 -0.10935934 -6.02178498 -1.36074062 0 0 Z " fill="#0C0D0E" transform="translate(589,1073)"/>
<path d="M0 0 C3.375 1.8125 3.375 1.8125 6 4 C6.52851562 4.43183594 7.05703125 4.86367188 7.6015625 5.30859375 C10.50409215 8.81919526 10.30528691 13.62829149 10 18 C8.42140353 21.88362672 5.88033708 24.24193196 2.75 26.9375 C-1.2424575 28.4800404 -4.7782197 28.65638987 -9 28 C-13.40553018 25.92191972 -16.17309047 23.28819261 -18.3671875 18.9921875 C-19.57549398 15.18825969 -19.19168447 11.76681874 -18 8 C-13.83820119 0.75538726 -7.92795961 -1.14239696 0 0 Z " fill="#0A0B0B" transform="translate(589,917)"/>
<path d="M0 0 C4.52997125 0.80427688 7.16099983 2.99455602 9.9921875 6.53125 C11.83674511 10.22036523 11.34281715 14.49582145 10.9921875 18.53125 C9.2770842 22.68360536 6.90910024 25.32798658 2.9921875 27.53125 C-1.86441994 28.18952511 -6.31820839 28.1423834 -10.9453125 26.46875 C-14.91814356 22.73669658 -16.76403472 19.26816668 -17.5078125 13.96875 C-16.04228531 3.89325059 -9.38801004 -0.27544284 0 0 Z " fill="#060507" transform="translate(1099.0078125,1080.46875)"/>
<path d="M0 0 C4.14016281 2.60934631 7.43364536 5.30093608 9 10 C9.54885106 14.7237181 9.46596728 18.10134882 7.25 22.375 C2.66531275 27.72380179 2.66531275 27.72380179 -1.40234375 28.3984375 C-10.2410464 28.31672376 -10.2410464 28.31672376 -14 25 C-17.64468556 20.86278937 -18.64934762 17.61640129 -18.38671875 12.24609375 C-17.57360182 7.5234449 -15.41843593 4.25632897 -11.8125 1.0625 C-7.73211733 -0.4789779 -4.2858441 -1.01637762 0 0 Z " fill="#090B0A" transform="translate(1558,798)"/>
<path d="M0 0 C40.26477267 -0.02288468 80.5295445 -0.04050755 120.79432238 -0.05106533 C125.54704501 -0.05231605 130.29976762 -0.05361037 135.05249023 -0.05493164 C136.4717733 -0.05532511 136.4717733 -0.05532511 137.91972875 -0.05572652 C153.24390274 -0.06007882 168.56807299 -0.06796396 183.89224476 -0.0771528 C199.61414086 -0.08650155 215.33603499 -0.09205821 231.05793375 -0.09408849 C240.76057361 -0.09546117 250.46320288 -0.09979803 260.16583949 -0.10791647 C266.81766556 -0.11319898 273.46948615 -0.11480085 280.12131418 -0.11350138 C283.96006875 -0.11286036 287.79880479 -0.11384888 291.63755608 -0.11920547 C295.79960702 -0.1249708 299.96161846 -0.12298904 304.12367249 -0.12025452 C305.94323356 -0.12462378 305.94323356 -0.12462378 307.79955345 -0.12908131 C313.30693845 -0.11927472 318.57713311 0.00911011 324 1 C324 1.33 324 1.66 324 2 C321.36 2.33 318.72 2.66 316 3 C316 2.34 316 1.68 316 1 C315.37079651 1.03029297 314.74159302 1.06058594 314.09332275 1.09179688 C297.29812878 1.87646037 280.55094894 2.09919202 263.73928833 2.01831055 C256.85095263 1.98669358 249.96262153 1.97383376 243.07421875 1.96875 C242.38719816 1.96820114 241.70017757 1.96765228 240.99233818 1.96708679 C227.84419641 1.96136814 214.70621088 2.17064509 201.5625 2.5 C200.62054779 2.52334412 199.67859558 2.54668823 198.70809937 2.57073975 C195.14460748 2.65920943 191.58111995 2.74784664 188.01765442 2.83737183 C161.92010477 3.4781399 161.92010477 3.4781399 149.5 2.4375 C143.24871583 1.92943195 137.15365829 2.14624415 130.89453125 2.46484375 C119.3180343 2.99640549 107.77465418 3.1576416 96.1875 3.125 C95.19458954 3.1234491 94.20167908 3.12189819 93.17868042 3.12030029 C74.49833271 3.08702839 55.81816273 2.9134809 37.13931274 2.68060303 C34.0891915 2.64267205 31.03906787 2.60893152 27.98886108 2.57867432 C24.37774459 2.54233475 20.7668889 2.49605015 17.15599442 2.44206238 C15.16750066 2.4145956 13.17888187 2.396717 11.1902771 2.37902832 C10.00543732 2.3591687 8.82059753 2.33930908 7.59985352 2.31884766 C6.56184097 2.30552399 5.52382843 2.29220032 4.45436096 2.2784729 C2 2 2 2 0 0 Z " fill="#171416" transform="translate(521,665)"/>
<path d="M0 0 C4.35461778 2.17730889 7.4730777 4.82085928 10 9 C10.66347937 14.2130522 9.83755525 17.59689703 7 22 C2.0568023 26.46093451 -0.99071062 27.36206211 -7.5234375 27.27734375 C-11.10001825 26.87681184 -12.66055681 25.69390428 -15 23 C-17.82206265 18.81556228 -18.58457607 15.13966366 -18.42578125 10.18359375 C-17.68518665 6.38549851 -15.77454471 4.64549612 -13 2 C-8.7405332 -0.83964453 -5.00024162 -0.63185581 0 0 Z " fill="#060607" transform="translate(1064,963)"/>
<path d="M0 0 C31.28786841 -0.06839463 62.57571711 -0.12150669 93.8636425 -0.15319599 C97.55500984 -0.15694824 101.24637703 -0.16083119 104.93774414 -0.16479492 C105.67264844 -0.16558185 106.40755275 -0.16636878 107.16472688 -0.16717956 C119.07406492 -0.18024392 130.98335965 -0.2039034 142.89267198 -0.23145839 C155.1069878 -0.25948399 167.32128089 -0.27617022 179.53562754 -0.28226548 C187.07638141 -0.28638785 194.61701286 -0.29942158 202.15772905 -0.3237494 C207.93381241 -0.34143823 213.70981681 -0.34337283 219.48592186 -0.33932304 C221.85996634 -0.34015139 224.23401526 -0.34615849 226.60803223 -0.35761642 C229.83890346 -0.37245077 233.06924264 -0.36898666 236.30012512 -0.36076355 C237.24855988 -0.36950207 238.19699463 -0.3782406 239.17416984 -0.38724393 C240.0370583 -0.38127078 240.89994675 -0.37529764 241.78898335 -0.36914349 C242.90820902 -0.37085223 242.90820902 -0.37085223 244.05004531 -0.37259549 C246 0 246 0 249 3 C166.83 2.67 84.66 2.34 0 2 C0 1.34 0 0.68 0 0 Z " fill="#121111" transform="translate(583,719)"/>
<path d="M0 0 C0 4.23775508 -0.11948212 6.93755694 -2.890625 10.28125 C-3.66921875 11.0134375 -4.4478125 11.745625 -5.25 12.5 C-6.0646875 13.27988281 -6.879375 14.05976562 -7.71875 14.86328125 C-8.4715625 15.56839844 -9.224375 16.27351562 -10 17 C-12.67869076 19.61781142 -15.20944827 22.2174527 -17.5625 25.125 C-19.63168244 27.56557417 -21.25032964 29.40341721 -24 31 C-25.32 31 -26.64 31 -28 31 C-30.21335524 32.66026748 -30.21335524 32.66026748 -32.328125 34.9375 C-33.52695313 36.15566406 -33.52695313 36.15566406 -34.75 37.3984375 C-35.575 38.25695312 -36.4 39.11546875 -37.25 40 C-38.09046875 40.85851562 -38.9309375 41.71703125 -39.796875 42.6015625 C-41.87381504 44.72570572 -43.94087223 46.85860837 -46 49 C-46.66 48.67 -47.32 48.34 -48 48 C-32.16 32.16 -16.32 16.32 0 0 Z " fill="#E4E3E3" transform="translate(1434,771)"/>
<path d="M0 0 C0 3 0 3 -1.33305359 4.69381714 C-1.9575087 5.31161041 -2.58196381 5.92940369 -3.2253418 6.56591797 C-3.92995041 7.27029999 -4.63455902 7.97468201 -5.36051941 8.70040894 C-6.13229019 9.45669586 -6.90406097 10.21298279 -7.69921875 10.9921875 C-8.486418 11.77514191 -9.27361725 12.55809631 -10.08467102 13.36477661 C-12.61201339 15.87529055 -15.14954899 18.37521547 -17.6875 20.875 C-19.38024136 22.55269549 -21.07230725 24.23107281 -22.76367188 25.91015625 C-26.55694775 29.67359182 -30.35289622 33.43420167 -34.16732788 37.1762085 C-35.30416026 38.3075321 -36.42637616 39.45400793 -37.52432251 40.62310791 C-38.63133419 41.7994705 -39.80911052 42.90863111 -41 44 C-41.99 44 -42.98 44 -44 44 C-29.48 29.48 -14.96 14.96 0 0 Z " fill="#151312" transform="translate(896,997)"/>
<path d="M0 0 C0.33 0.66 0.66 1.32 1 2 C1.99 2.33 2.98 2.66 4 3 C1.32654333 6.66362581 -1.07538634 8.77251657 -5 11 C-5.33 11.66 -5.66 12.32 -6 13 C-6.74636719 13.11214844 -7.49273438 13.22429688 -8.26171875 13.33984375 C-11.86546544 14.20865001 -13.28945648 15.88882702 -15.8125 18.5625 C-16.60269531 19.38878906 -17.39289063 20.21507812 -18.20703125 21.06640625 C-18.79871094 21.70449219 -19.39039063 22.34257813 -20 23 C-20.66 22.67 -21.32 22.34 -22 22 C-14.74 14.74 -7.48 7.48 0 0 Z " fill="#DEDDDE" transform="translate(1373,832)"/>
<path d="M0 0 C0 3 0 3 -2.61450195 5.93920898 C-3.81495733 7.13240113 -5.02349034 8.31749981 -6.23828125 9.49609375 C-6.87485153 10.12604752 -7.51142181 10.75600128 -8.1672821 11.40504456 C-10.20874359 13.42305156 -12.2600549 15.43067012 -14.3125 17.4375 C-16.35251975 19.44240919 -18.3903826 21.44944249 -20.42558289 23.45924377 C-21.69340312 24.71015162 -22.96429532 25.9579555 -24.23860168 27.20225525 C-27.07648072 29.99241732 -29.74201534 32.70065009 -32 36 C-32.99 35.67 -33.98 35.34 -35 35 C-23.45 23.45 -11.9 11.9 0 0 Z " fill="#2E3134" transform="translate(1194,682)"/>
<path d="M0 0 C0.66 1.32 1.32 2.64 2 4 C1.29335205 4.21769043 0.5867041 4.43538086 -0.14135742 4.65966797 C-3.68089886 6.31925312 -6.05584577 8.67966905 -8.73828125 11.4453125 C-9.26391159 11.97518768 -9.78954193 12.50506287 -10.33110046 13.05099487 C-11.9987766 14.73538611 -13.65568349 16.42993261 -15.3125 18.125 C-16.44526708 19.27282316 -17.57872355 20.41996641 -18.71289062 21.56640625 C-21.4833047 24.36979437 -24.24411133 27.18233431 -27 30 C-27.66 29.67 -28.32 29.34 -29 29 C-19.43 19.43 -9.86 9.86 0 0 Z " fill="#EBE7EB" transform="translate(901,1042)"/>
<path d="M0 0 C0 0.66 0 1.32 0 2 C2.64 1.67 5.28 1.34 8 1 C7.67 1.99 7.34 2.98 7 4 C7.66 4.66 8.32 5.32 9 6 C2.4 5.34 -4.2 4.68 -11 4 C-11 3.67 -11 3.34 -11 3 C-10.05125 2.690625 -9.1025 2.38125 -8.125 2.0625 C-2.05882353 0 -2.05882353 0 0 0 Z " fill="#D7D6D7" transform="translate(845,738)"/>
<path d="M0 0 C0.66 0.66 1.32 1.32 2 2 C2.99 1.34 3.98 0.68 5 0 C3.58226538 3.54433654 2.32387762 4.33806119 -1 6 C-2.26804566 8.0335948 -2.26804566 8.0335948 -3 10 C-7 10 -7 10 -9 9 C-8.51789063 8.60167969 -8.03578125 8.20335937 -7.5390625 7.79296875 C-6.90742187 7.26316406 -6.27578125 6.73335937 -5.625 6.1875 C-4.99851562 5.66542969 -4.37203125 5.14335938 -3.7265625 4.60546875 C-1.7778952 2.91774261 -1.7778952 2.91774261 0 0 Z " fill="#EAEBE7" transform="translate(1385,820)"/>
<path d="M0 0 C1.32 0 2.64 0 4 0 C4 0.66 4 1.32 4 2 C5.65 2.33 7.3 2.66 9 3 C9 2.34 9 1.68 9 1 C7.68 1.33 6.36 1.66 5 2 C5 1.34 5 0.68 5 0 C7.64 0 10.28 0 13 0 C13.33 1.65 13.66 3.3 14 5 C8.72 4.67 3.44 4.34 -2 4 C-1.34 2.68 -0.68 1.36 0 0 Z " fill="#1A191E" transform="translate(1092,1059)"/>
<path d="M0 0 C4.95 0 9.9 0 15 0 C14.67 0.99 14.34 1.98 14 3 C9.38 3 4.76 3 0 3 C0 2.01 0 1.02 0 0 Z " fill="#F6F6F3" transform="translate(1238,891)"/>
<path d="M0 0 C0.90492188 0.02320313 1.80984375 0.04640625 2.7421875 0.0703125 C4.10730469 0.09738281 4.10730469 0.09738281 5.5 0.125 C6.19867187 0.14820313 6.89734375 0.17140625 7.6171875 0.1953125 C8.2771875 2.1753125 8.9371875 4.1553125 9.6171875 6.1953125 C4.77030558 5.41355735 0.2405508 3.79686972 -4.3828125 2.1953125 C-2.3828125 0.1953125 -2.3828125 0.1953125 0 0 Z " fill="#DEDFE2" transform="translate(918.3828125,680.8046875)"/>
<path d="M0 0 C3.5 0.1875 3.5 0.1875 7 1 C7.66 1.99 8.32 2.98 9 4 C4.05 5.485 4.05 5.485 -1 7 C-1.33 5.35 -1.66 3.7 -2 2 C-1.34 1.34 -0.68 0.68 0 0 Z " fill="#F3F2EF" transform="translate(865,1174)"/>
<path d="M0 0 C-1.09463822 1.17561146 -2.20107186 2.3402489 -3.3125 3.5 C-3.92738281 4.1496875 -4.54226563 4.799375 -5.17578125 5.46875 C-7 7 -7 7 -10 7 C-10.66 6.67 -11.32 6.34 -12 6 C-11.34 4.68 -10.68 3.36 -10 2 C-9.34 2 -8.68 2 -8 2 C-8 1.34 -8 0.68 -8 0 C-2.25 -1.125 -2.25 -1.125 0 0 Z " fill="#F5F5F5" transform="translate(1153,724)"/>
<path d="M0 0 C0.33 0.66 0.66 1.32 1 2 C1.66 2.33 2.32 2.66 3 3 C1.8803014 4.00593243 0.7540588 5.0045849 -0.375 6 C-1.00148438 6.556875 -1.62796875 7.11375 -2.2734375 7.6875 C-4 9 -4 9 -6 9 C-6.375 6.75 -6.375 6.75 -6 4 C-3 1.6875 -3 1.6875 0 0 Z " fill="#F0EEED" transform="translate(1414,793)"/>
<path d="M0 0 C0 4.07907331 -1.56697866 5.05743168 -4.3125 8 C-5.11300781 8.86625 -5.91351562 9.7325 -6.73828125 10.625 C-8.46946687 12.44289439 -10.21073329 14.23968582 -12 16 C-12 11.68945634 -9.38987567 9.82500039 -6.5625 6.875 C-6.04623047 6.32457031 -5.52996094 5.77414062 -4.99804688 5.20703125 C-3.35015241 3.45358537 -1.70164017 1.70164017 0 0 Z " fill="#272E2E" transform="translate(1148,728)"/>
<path d="M0 0 C0.99 0.99 1.98 1.98 3 3 C1.73762269 5.52475462 0.2095347 6.46605403 -2.0625 8.125 C-2.79597656 8.66382813 -3.52945313 9.20265625 -4.28515625 9.7578125 C-4.85105469 10.16773438 -5.41695312 10.57765625 -6 11 C-4.54955729 6.89041233 -2.48889248 3.56741255 0 0 Z " fill="#252426" transform="translate(1020,1148)"/>
<path d="M0 0 C0.66 0.33 1.32 0.66 2 1 C0.29295928 2.70704072 -1.41451301 4.41359764 -3.125 6.1171875 C-4.66491603 7.66351984 -6.17983289 9.23470884 -7.6875 10.8125 C-9.7945294 12.80563592 -11.41629122 13.79789549 -14 15 C-9.59156563 9.70987876 -4.92440206 4.81191572 0 0 Z " fill="#111418" transform="translate(1134,743)"/>
<path d="M0 0 C0.66 0 1.32 0 2 0 C1.49202991 4.3177458 0.80317221 8.03302114 -1 12 C-2.5625 10.8125 -2.5625 10.8125 -4 9 C-3.6875 6.3125 -3.6875 6.3125 -3 4 C-2.34 4 -1.68 4 -1 4 C-0.67 2.68 -0.34 1.36 0 0 Z " fill="#D4D2D2" transform="translate(1412,1068)"/>
<path d="M0 0 C1.06671952 3.20015856 0.94845472 4.88544294 0.5625 8.1875 C0.46066406 9.08855469 0.35882812 9.98960938 0.25390625 10.91796875 C0.12822266 11.94857422 0.12822266 11.94857422 0 13 C-3 11 -3 11 -3.9375 7.625 C-4 4 -4 4 -2.0625 1.5625 C-1.381875 1.046875 -0.70125 0.53125 0 0 Z " fill="#1F1C20" transform="translate(553,1078)"/>
<path d="M0 0 C2.39087908 3.37535871 2.03181678 6.09677644 1.58203125 10 C1 12 1 12 -2 16 C-2 12.04 -2 8.08 -2 4 C-1.34 4 -0.68 4 0 4 C0 2.68 0 1.36 0 0 Z " fill="#19181E" transform="translate(618,921)"/>
<path d="M0 0 C3.3 0.99 6.6 1.98 10 3 C9.01 3.99 8.02 4.98 7 6 C7 5.34 7 4.68 7 4 C6.34 4 5.68 4 5 4 C4.67 4.99 4.34 5.98 4 7 C3.34 7 2.68 7 2 7 C2 5.35 2 3.7 2 2 C1.34 2 0.68 2 0 2 C0 1.34 0 0.68 0 0 Z " fill="#141316" transform="translate(891,754)"/>
<path d="M0 0 C0.85851562 0.36931641 0.85851562 0.36931641 1.734375 0.74609375 C0.991875 1.32359375 0.249375 1.90109375 -0.515625 2.49609375 C-2.92650143 4.46862901 -5.10605201 6.50653657 -7.265625 8.74609375 C-8.255625 8.41609375 -9.245625 8.08609375 -10.265625 7.74609375 C-9.03163437 6.37732259 -7.77781877 5.02640209 -6.515625 3.68359375 C-5.81953125 2.92949219 -5.1234375 2.17539062 -4.40625 1.3984375 C-2.265625 -0.25390625 -2.265625 -0.25390625 0 0 Z " fill="#3A3C3A" transform="translate(861.265625,905.25390625)"/>
<path d="M0 0 C0.268125 0.61875 0.53625 1.2375 0.8125 1.875 C1.95556848 4.2995233 1.95556848 4.2995233 5 6 C0.71 5.67 -3.58 5.34 -8 5 C-8 4.67 -8 4.34 -8 4 C-6.35 4 -4.7 4 -3 4 C-3.33 3.01 -3.66 2.02 -4 1 C-2.68 0.67 -1.36 0.34 0 0 Z " fill="#151918" transform="translate(827,792)"/>
<path d="M0 0 C0.66 -0.33 1.32 -0.66 2 -1 C3.9453125 -0.44140625 3.9453125 -0.44140625 6.125 0.4375 C6.84945312 0.72496094 7.57390625 1.01242187 8.3203125 1.30859375 C8.87460937 1.53675781 9.42890625 1.76492188 10 2 C10 2.33 10 2.66 10 3 C7.54066009 2.88630789 5.0832091 2.75957349 2.625 2.625 C1.92632813 2.5940625 1.22765625 2.563125 0.5078125 2.53125 C-4.7734375 2.2265625 -4.7734375 2.2265625 -7 0 C-3.7807732 -1.0730756 -3.09793558 -0.79946725 0 0 Z " fill="#F2EFEF" transform="translate(817,662)"/>
<path d="M0 0 C0.66 0.33 1.32 0.66 2 1 C-0.0625 3.5625 -0.0625 3.5625 -3 6 C-6.8125 5.8125 -6.8125 5.8125 -10 5 C-6.76527494 2.84351662 -3.62848922 1.38542316 0 0 Z " fill="#DCDBDE" transform="translate(934,1295)"/>
<path d="M0 0 C0.66 0.99 1.32 1.98 2 3 C1.625 4.875 1.625 4.875 1 7 C0.96213099 8.66623639 0.95372155 10.33397597 1 12 C0.34 12 -0.32 12 -1 12 C-2.62514468 13.45833358 -2.62514468 13.45833358 -4 15 C-3.52229477 13.06213915 -3.04278429 11.12472326 -2.5625 9.1875 C-2.29566406 8.10855469 -2.02882813 7.02960937 -1.75390625 5.91796875 C-1.23922588 3.9259157 -0.65062825 1.95188476 0 0 Z " fill="#302E30" transform="translate(1472,863)"/>
<path d="M0 0 C0.33 0 0.66 0 1 0 C1.05410687 1.77049689 1.09284119 3.54146849 1.125 5.3125 C1.14820313 6.29863281 1.17140625 7.28476562 1.1953125 8.30078125 C1 11 1 11 -1 14 C-1.66 14 -2.32 14 -3 14 C-3 12.02 -3 10.04 -3 8 C-2.34 7.67 -1.68 7.34 -1 7 C-0.59270772 4.67843403 -0.25561323 2.3431213 0 0 Z " fill="#D7D5D2" transform="translate(1584,806)"/>
<path d="M0 0 C0.99 0 1.98 0 3 0 C3 0.66 3 1.32 3 2 C3.66 2 4.32 2 5 2 C5 2.66 5 3.32 5 4 C6.32 4 7.64 4 9 4 C9 5.32 9 6.64 9 8 C9.66 8.33 10.32 8.66 11 9 C8 9 8 9 5.95703125 7.28515625 C5.24933594 6.55167969 4.54164063 5.81820312 3.8125 5.0625 C3.09707031 4.33160156 2.38164063 3.60070312 1.64453125 2.84765625 C0 1 0 1 0 0 Z " fill="#2B2833" transform="translate(978,784)"/>
<path d="M0 0 C0.70576172 0.52400391 0.70576172 0.52400391 1.42578125 1.05859375 C2.35970703 1.74115234 2.35970703 1.74115234 3.3125 2.4375 C4.23482422 3.11619141 4.23482422 3.11619141 5.17578125 3.80859375 C7.09677101 5.17336308 7.09677101 5.17336308 10 6 C10.33 6.99 10.66 7.98 11 9 C9.35 8.67 7.7 8.34 6 8 C6 7.34 6 6.68 6 6 C5.34 6 4.68 6 4 6 C4 5.34 4 4.68 4 4 C3.01 4 2.02 4 1 4 C0.67 2.68 0.34 1.36 0 0 Z " fill="#2E2D2E" transform="translate(993,724)"/>
<path d="M0 0 C0.99 0.33 1.98 0.66 3 1 C2.75 3.875 2.75 3.875 2 7 C0.02 7.99 0.02 7.99 -2 9 C-1.34 6.03 -0.68 3.06 0 0 Z " fill="#242527" transform="translate(1519,956)"/>
<path d="M0 0 C0.66 0.99 1.32 1.98 2 3 C1.25 5.4375 1.25 5.4375 0 8 C-0.37125 8.763125 -0.7425 9.52625 -1.125 10.3125 C-1.41375 10.869375 -1.7025 11.42625 -2 12 C-2.66 12 -3.32 12 -4 12 C-3.52309796 10.37433394 -3.04340334 8.74948689 -2.5625 7.125 C-2.29566406 6.22007812 -2.02882813 5.31515625 -1.75390625 4.3828125 C-1 2 -1 2 0 0 Z " fill="#302F2F" transform="translate(1227,915)"/>
<path d="M0 0 C0.66 1.32 1.32 2.64 2 4 C-0.65654657 7.73884332 -2.58110387 9.64978174 -7 11 C-6.67 10.01 -6.34 9.02 -6 8 C-5.01 8 -4.02 8 -3 8 C-1.58622659 5.36095629 -0.62759865 2.92879371 0 0 Z " fill="#2C2B2D" transform="translate(1564,815)"/>
<path d="M0 0 C2.64 0 5.28 0 8 0 C8.33 0.66 8.66 1.32 9 2 C5.78548731 3.60725635 2.56387464 3.05748185 -1 3 C-0.67 2.01 -0.34 1.02 0 0 Z " fill="#070A07" transform="translate(725,793)"/>
<path d="M0 0 C-0.33 1.65 -0.66 3.3 -1 5 C-3.97 4.01 -6.94 3.02 -10 2 C-10 1.67 -10 1.34 -10 1 C-3.375 0 -3.375 0 0 0 Z " fill="#21202A" transform="translate(914,737)"/>
<path d="M0 0 C0.66 0.33 1.32 0.66 2 1 C1.67 1.99 1.34 2.98 1 4 C2.32 4 3.64 4 5 4 C5 4.66 5 5.32 5 6 C-0.94 4.515 -0.94 4.515 -7 3 C-3 1 -3 1 0 0 Z " fill="#CECCD0" transform="translate(908,676)"/>
<path d="M0 0 C0.66 0.33 1.32 0.66 2 1 C1.67 1.99 1.34 2.98 1 4 C0.01 4 -0.98 4 -2 4 C-2 4.66 -2 5.32 -2 6 C-2.66 5.67 -3.32 5.34 -4 5 C-4.33 5.33 -4.66 5.66 -5 6 C-6.32 5.34 -7.64 4.68 -9 4 C-7.54618103 3.30300448 -6.08677047 2.61766134 -4.625 1.9375 C-3.40683594 1.36322266 -3.40683594 1.36322266 -2.1640625 0.77734375 C-1.44992187 0.52082031 -0.73578125 0.26429687 0 0 Z " fill="#1F1E23" transform="translate(921,1238)"/>
<path d="M0 0 C0.928125 0.20625 1.85625 0.4125 2.8125 0.625 C2.4825 1.285 2.1525 1.945 1.8125 2.625 C-0.25390625 3.2578125 -0.25390625 3.2578125 -2.75 3.75 C-3.57628906 3.91757813 -4.40257812 4.08515625 -5.25390625 4.2578125 C-5.89199219 4.37898438 -6.53007813 4.50015625 -7.1875 4.625 C-5.78075725 0.40477175 -4.42930454 -0.52109465 0 0 Z " fill="#24212C" transform="translate(883.1875,1231.375)"/>
<path d="M0 0 C0.99 1.32 1.98 2.64 3 4 C1.70700306 6.88437779 0.34058637 8.87219421 -2 11 C-1 3.57142857 -1 3.57142857 0 0 Z " fill="#D6D0D5" transform="translate(1506,1221)"/>
<path d="M0 0 C0.66 0.33 1.32 0.66 2 1 C2.40729228 3.32156597 2.74438677 5.6568787 3 8 C2.01 7.67 1.02 7.34 0 7 C0 8.65 0 10.3 0 12 C-0.33 12 -0.66 12 -1 12 C-1.02712066 10.56260487 -1.04645067 9.12506137 -1.0625 7.6875 C-1.07410156 6.88699219 -1.08570313 6.08648438 -1.09765625 5.26171875 C-1 3 -1 3 0 0 Z " fill="#626263" transform="translate(985,1019)"/>
<path d="M0 0 C3.3 0 6.6 0 10 0 C9.67 0.99 9.34 1.98 9 3 C6.36 3 3.72 3 1 3 C0.67 2.01 0.34 1.02 0 0 Z " fill="#151818" transform="translate(1054,963)"/>
<path d="M0 0 C0 0.99 0 1.98 0 3 C-1.33333333 4.33333333 -2.66666667 5.66666667 -4 7 C-5.25436187 9.63222962 -5.25436187 9.63222962 -6 12 C-6.66 11.67 -7.32 11.34 -8 11 C-7.43040847 7.37386801 -6.07625466 5.74482259 -3.4375 3.25 C-2.79683594 2.63640625 -2.15617187 2.0228125 -1.49609375 1.390625 C-1.00238281 0.93171875 -0.50867187 0.4728125 0 0 Z " fill="#202026" transform="translate(1119,758)"/>
<path d="M0 0 C0 1.32 0 2.64 0 4 C-1.258125 4.04125 -2.51625 4.0825 -3.8125 4.125 C-4.52019531 4.14820313 -5.22789063 4.17140625 -5.95703125 4.1953125 C-8 4 -8 4 -11 2 C-9.6078125 2.061875 -9.6078125 2.061875 -8.1875 2.125 C-4.72190539 1.98909433 -3.24974144 0 0 0 Z " fill="#18181B" transform="translate(1557,822)"/>
<path d="M0 0 C0.66 0.33 1.32 0.66 2 1 C2.96070434 3.88211302 3.10581883 5.69850044 3.0625 8.6875 C3.05347656 9.49574219 3.04445313 10.30398438 3.03515625 11.13671875 C3.02355469 11.75160156 3.01195312 12.36648438 3 13 C2.67 13 2.34 13 2 13 C1.855625 12.2575 1.71125 11.515 1.5625 10.75 C1.23236426 9.13600307 0.87096352 7.52686625 0.4375 5.9375 C0 4 0 4 0 0 Z " fill="#30312D" transform="translate(1564,804)"/>
<path d="M0 0 C3.465 1.485 3.465 1.485 7 3 C6 5 6 5 4.0625 5.6875 C2 6 2 6 0 5 C0 3.35 0 1.7 0 0 Z " fill="#1A191D" transform="translate(949,697)"/>
<path d="M0 0 C0.99 0.66 1.98 1.32 3 2 C2.75 4.375 2.75 4.375 2 7 C0.02 7.99 0.02 7.99 -2 9 C-1.34 6.03 -0.68 3.06 0 0 Z " fill="#E6E6E9" transform="translate(1654,674)"/>
<path d="M0 0 C0.66 0.33 1.32 0.66 2 1 C1 2.9375 1 2.9375 -1 5 C-3.69924572 5.66549451 -6.20631637 5.81680763 -9 6 C-6.12050853 3.76039553 -3.23257974 1.70135776 0 0 Z " fill="#DBD7DD" transform="translate(923,1216)"/>
<path d="M0 0 C0.33 0.99 0.66 1.98 1 3 C1.66 3 2.32 3 3 3 C3 4.65 3 6.3 3 8 C1.35 7.67 -0.3 7.34 -2 7 C-1.34 4.69 -0.68 2.38 0 0 Z " fill="#DCDCDB" transform="translate(1255,1180)"/>
<path d="M0 0 C0.66 0.33 1.32 0.66 2 1 C1.360625 1.598125 0.72125 2.19625 0.0625 2.8125 C-2.20310389 4.90810337 -2.20310389 4.90810337 -3 8 C-5.0625 9.1875 -5.0625 9.1875 -7 10 C-5.6062718 5.56541027 -3.39417765 3.12621626 0 0 Z " fill="#262226" transform="translate(1090,1081)"/>
<path d="M0 0 C1.32 1.65 2.64 3.3 4 5 C1.36 5 -1.28 5 -4 5 C-3 2 -3 2 0 0 Z " fill="#CDCBC3" transform="translate(1097,1076)"/>
<path d="M0 0 C2.97 0 5.94 0 9 0 C9 0.66 9 1.32 9 2 C5.7 2.33 2.4 2.66 -1 3 C-0.67 2.01 -0.34 1.02 0 0 Z " fill="#0D0C11" transform="translate(577,1053)"/>
<path d="M0 0 C0.66 0.33 1.32 0.66 2 1 C2 2.65 2 4.3 2 6 C0.35 6 -1.3 6 -3 6 C-2.42655063 3.13275314 -2.1385485 2.1385485 0 0 Z " fill="#1D2221" transform="translate(840,925)"/>
<path d="M0 0 C0.77321882 2.98241547 1.41196203 5.97580475 2 9 C0.68 9.33 -0.64 9.66 -2 10 C-1.54177532 6.53058454 -1.10868317 3.32604951 0 0 Z " fill="#2E2D30" transform="translate(1535,902)"/>
<path d="M0 0 C0.91007813 0.00902344 1.82015625 0.01804687 2.7578125 0.02734375 C3.45648437 0.03894531 4.15515625 0.05054688 4.875 0.0625 C1.85350056 1.62777784 -0.70574001 2.71180667 -4.125 3.0625 C-5.115 2.4025 -6.105 1.7425 -7.125 1.0625 C-4.60024538 -0.19987731 -2.81299534 -0.03606404 0 0 Z " fill="#D9D8DC" transform="translate(921.125,680.9375)"/>
<path d="M0 0 C1.32 0 2.64 0 4 0 C3.01 2.97 2.02 5.94 1 9 C0.17189174 5.68756695 -0.09278428 3.34023421 0 0 Z " fill="#19161C" transform="translate(1228,1234)"/>
<path d="M0 0 C0.33 0.66 0.66 1.32 1 2 C1.66 2.33 2.32 2.66 3 3 C-1.455 4.485 -1.455 4.485 -6 6 C-3.75 1.5 -3.75 1.5 0 0 Z " fill="#131019" transform="translate(900,1224)"/>
<path d="M0 0 C2.97 0 5.94 0 9 0 C7.515 1.485 7.515 1.485 6 3 C2.3125 2.6875 2.3125 2.6875 -1 2 C-0.67 1.34 -0.34 0.68 0 0 Z " fill="#0B0C0E" transform="translate(829,719)"/>
<path d="M0 0 C3.45925163 1.2491742 6.14693203 2.67527795 9 5 C5.37471432 5.20140476 3.13498292 4.85776765 0 3 C0 2.01 0 1.02 0 0 Z " fill="#1D1C21" transform="translate(966,707)"/>
<path d="M0 0 C1.98 0.66 3.96 1.32 6 2 C6 2.66 6 3.32 6 4 C3.69 4 1.38 4 -1 4 C-1 1 -1 1 0 0 Z " fill="#F1F2F0" transform="translate(1198,675)"/>
<path d="M0 0 C2.64 0.33 5.28 0.66 8 1 C6.3125 2.5625 6.3125 2.5625 4 4 C1.25 3.6875 1.25 3.6875 -1 3 C-0.67 2.01 -0.34 1.02 0 0 Z " fill="#201F22" transform="translate(876,672)"/>
<path d="M0 0 C0.66 0.33 1.32 0.66 2 1 C-0.57784846 3.64752004 -2.91648098 5.94432065 -6 8 C-4.73058503 4.08597051 -3.48832306 2.20927127 0 0 Z " fill="#2E2E2C" transform="translate(1547,799)"/>
<path d="M0 0 C2.97 0.33 5.94 0.66 9 1 C8.34 1.66 7.68 2.32 7 3 C6.01 2.67 5.02 2.34 4 2 C4 2.66 4 3.32 4 4 C3.01 4 2.02 4 1 4 C0.67 2.68 0.34 1.36 0 0 Z " fill="#E8E6E8" transform="translate(869,744)"/>
<path d="M0 0 C0.94875 0.350625 1.8975 0.70125 2.875 1.0625 C2.875 1.3925 2.875 1.7225 2.875 2.0625 C0.235 2.3925 -2.405 2.7225 -5.125 3.0625 C-5.125 2.0725 -5.125 1.0825 -5.125 0.0625 C-3.125 -0.9375 -3.125 -0.9375 0 0 Z " fill="#151518" transform="translate(872.125,1312.9375)"/>
<path d="M0 0 C1.9451 2.91765 2.45276317 4.62537285 3 8 C1.68 8.33 0.36 8.66 -1 9 C-0.67 6.03 -0.34 3.06 0 0 Z " fill="#DBD8DC" transform="translate(974,913)"/>
<path d="M0 0 C0.33 0.66 0.66 1.32 1 2 C1.99 2.33 2.98 2.66 4 3 C2.02 3.99 2.02 3.99 0 5 C0 5.66 0 6.32 0 7 C-0.66 6.67 -1.32 6.34 -2 6 C-1.34 4.02 -0.68 2.04 0 0 Z " fill="#E7E5E4" transform="translate(1373,832)"/>
<path d="M0 0 C0.6875 1.8125 0.6875 1.8125 1 4 C-0.4375 5.75 -0.4375 5.75 -2 7 C-2.99 6.34 -3.98 5.68 -5 5 C-3.35 3.35 -1.7 1.7 0 0 Z " fill="#CBCACA" transform="translate(1381,824)"/>
<path d="M0 0 C1.32 0.33 2.64 0.66 4 1 C4 1.66 4 2.32 4 3 C4.66 3.33 5.32 3.66 6 4 C4.02 4.33 2.04 4.66 0 5 C0 3.35 0 1.7 0 0 Z " fill="#ECEEED" transform="translate(895,1309)"/>
<path d="M0 0 C-0.33 1.32 -0.66 2.64 -1 4 C-3.31 3.67 -5.62 3.34 -8 3 C-2 0 -2 0 0 0 Z " fill="#DADBDE" transform="translate(909,1305)"/>
<path d="M0 0 C2.4375 0.375 2.4375 0.375 5 1 C5.33 1.66 5.66 2.32 6 3 C4.35 3.66 2.7 4.32 1 5 C0.67 3.35 0.34 1.7 0 0 Z " fill="#F1F1EC" transform="translate(948,1217)"/>
<path d="M0 0 C0.66 0.33 1.32 0.66 2 1 C1.01 2.32 0.02 3.64 -1 5 C-1.99 4.67 -2.98 4.34 -4 4 C-4.33 3.34 -4.66 2.68 -5 2 C-2.625 0.9375 -2.625 0.9375 0 0 Z " fill="#231F25" transform="translate(865,1180)"/>
<path d="M0 0 C0.33 0.99 0.66 1.98 1 3 C-0.32 4.32 -1.64 5.64 -3 7 C-3.66 6.34 -4.32 5.68 -5 5 C-3.35 3.35 -1.7 1.7 0 0 Z " fill="#D5D3D8" transform="translate(981,1170)"/>
<path d="M0 0 C0.66 0 1.32 0 2 0 C1.835 0.598125 1.67 1.19625 1.5 1.8125 C0.8885876 4.11344336 0.8885876 4.11344336 1 7 C-0.32 5.68 -1.64 4.36 -3 3 C-2.34 3 -1.68 3 -1 3 C-0.67 2.01 -0.34 1.02 0 0 Z " fill="#0A0B10" transform="translate(842,1057)"/>
<path d="M0 0 C0.99 0 1.98 0 3 0 C3 1.32 3 2.64 3 4 C2.01 4 1.02 4 0 4 C0 5.65 0 7.3 0 9 C-0.33 9 -0.66 9 -1 9 C-0.67 6.03 -0.34 3.06 0 0 Z " fill="#3D3D3F" transform="translate(571,925)"/>
<path d="M0 0 C0.33 0.99 0.66 1.98 1 3 C-0.65 4.65 -2.3 6.3 -4 8 C-4.99 7.67 -5.98 7.34 -7 7 C-4.66666667 4.66666667 -2.33333333 2.33333333 0 0 Z " fill="#D9D6DB" transform="translate(1205,849)"/>
<path d="M0 0 C2.625 0.25 2.625 0.25 4.4375 1.75 C4.829375 2.245 5.22125 2.74 5.625 3.25 C2.25 3.375 2.25 3.375 -1.375 3.25 C-2.035 2.59 -2.695 1.93 -3.375 1.25 C-2.375 0.25 -2.375 0.25 0 0 Z " fill="#1C1C20" transform="translate(826.375,718.75)"/>
<path d="M0 0 C0.66 0.33 1.32 0.66 2 1 C1.67 1.66 1.34 2.32 1 3 C0.34 3 -0.32 3 -1 3 C-1.33 3.99 -1.66 4.98 -2 6 C-2.99 5.67 -3.98 5.34 -5 5 C-3.35 3.35 -1.7 1.7 0 0 Z " fill="#090E0C" transform="translate(1170,708)"/>
<path d="M0 0 C0.66 0 1.32 0 2 0 C1.67 1.65 1.34 3.3 1 5 C-1.31 4.34 -3.62 3.68 -6 3 C-6 2.67 -6 2.34 -6 2 C-4.02 2 -2.04 2 0 2 C0 1.34 0 0.68 0 0 Z " fill="#E8E6E8" transform="translate(936,686)"/>
</svg>
